<svg width="71" height="78" viewBox="0 0 71 78" fill="none" xmlns="http://www.w3.org/2000/svg">
<path d="M66.675 34.4049H45.2691C43.3915 34.4049 41.8648 36.0579 41.8648 38.0906V39.9357L36.5483 37.6192C36.4748 37.5171 36.3875 37.4256 36.2849 37.352L32.0791 34.3179C31.6409 34.0011 31.0571 34.0626 30.6841 34.465L30.5857 34.5701C30.4844 34.3449 30.4276 34.0912 30.4276 33.8179V32.0344C30.673 31.8407 30.9129 31.638 31.1459 31.4218C32.8626 29.8214 34.0745 27.6941 34.6236 25.3505H34.6888C36.6828 25.3505 38.3052 23.594 38.3052 21.4351V11.552C38.3038 5.43868 33.7098 0.464844 28.0633 0.464844H20.1787C18.2541 0.464844 16.5845 1.4422 15.5542 3.15519H15.3171C12.2595 3.15519 9.77044 5.84854 9.77044 9.16042V21.4336C9.77044 23.5925 11.3928 25.349 13.3869 25.349H13.452C13.9998 27.6926 15.2131 29.8214 16.927 31.4203C17.16 31.638 17.3999 31.8422 17.6467 32.0359V33.8179C17.6467 34.0912 17.5898 34.3464 17.4872 34.5731L17.386 34.465C17.0116 34.0641 16.4292 34.0026 15.991 34.3194L11.7894 37.3535C11.6882 37.4271 11.5994 37.5171 11.5273 37.6192L3.47359 41.1278C1.57248 41.955 0 42.8933 0 45.9995V67.9592C0 69.9814 1.5184 71.6269 3.38485 71.6269H41.8662V73.6446C41.8662 75.6789 43.3929 77.3348 45.2704 77.3348H66.6764C68.5553 77.3348 70.0848 75.6789 70.0848 73.6446V38.0891C70.0834 36.0579 68.5539 34.4049 66.675 34.4049ZM33.9247 38.532L29.3446 43.4503L28.2616 42.6681C28.2519 42.6621 28.2436 42.6546 28.2339 42.6486L27.0247 41.7748L31.3248 37.1538C31.3414 37.1373 31.358 37.1193 31.3747 37.1013L31.6021 36.8566L33.9247 38.532ZM22.6345 49.6267H25.4356L26.3855 69.2248H21.6888L22.6345 49.6267ZM25.6353 47.2261H22.4362L21.6971 44.192L23.1296 43.1576H24.9461L26.3771 44.192L25.6353 47.2261ZM15.3171 5.55578H16.1824C16.5762 5.55578 16.9395 5.33058 17.1392 4.96276L17.3028 4.6595C17.9199 3.50349 18.9418 2.86694 20.1801 2.86694H28.0647C32.4882 2.86694 36.0879 6.76283 36.0879 11.552V17.8275C35.7343 17.6668 35.3516 17.5632 34.9523 17.5332V14.4105C34.9523 13.822 34.686 13.2815 34.2381 12.9587C33.7999 12.6375 33.2439 12.5714 32.7461 12.7816C32.7405 12.7831 32.735 12.7861 32.7294 12.7891C26.764 15.4254 23.6704 15.1011 18.9377 11.3448C18.2111 10.7683 17.3042 10.6152 16.45 10.923C15.5958 11.2307 14.9579 11.9453 14.6973 12.8807L13.4063 17.5212H13.3882C12.8918 17.5212 12.419 17.6293 11.9891 17.826V9.15892C11.9877 7.17269 13.4812 5.55578 15.3171 5.55578ZM15.4488 23.9573C15.3629 23.3763 14.8983 22.9484 14.3548 22.9484H13.3882C12.6173 22.9484 11.9891 22.2683 11.9891 21.4336C11.9891 20.6004 12.6173 19.9233 13.3882 19.9233H14.23C14.7194 19.9233 15.1507 19.5765 15.2907 19.0691L16.8202 13.5743C16.8743 13.3791 16.9769 13.2635 17.1503 13.2004C17.3278 13.1359 17.4747 13.1614 17.6259 13.2815C20.3923 15.4779 22.5888 16.5364 24.9683 16.8216C27.2202 17.0918 29.6413 16.6414 32.7336 15.3668V18.7223C32.7336 19.3858 33.23 19.9218 33.8415 19.9218H34.686C35.457 19.9218 36.0852 20.5989 36.0852 21.4321C36.0852 22.2668 35.457 22.9469 34.686 22.9469H33.7195C33.1759 22.9469 32.7114 23.3748 32.6254 23.9558C31.9543 28.4748 28.2602 31.8827 24.0351 31.8827C19.8113 31.8842 16.12 28.4763 15.4488 23.9573ZM19.864 33.8164V33.3795C21.1771 33.971 22.5943 34.2848 24.0351 34.2848C25.4772 34.2848 26.8944 33.971 28.2089 33.378V33.8164C28.2089 34.7382 28.4849 35.6 28.9757 36.2966L24.8227 40.7585H23.2474L19.0944 36.2981C19.588 35.603 19.864 34.7397 19.864 33.8164ZM16.468 36.8566L21.0482 41.7748L19.839 42.6471C19.8293 42.6531 19.821 42.6606 19.8113 42.6666L18.7269 43.4488L14.1468 38.5305L16.468 36.8566ZM2.21589 67.9562V45.9965C2.21589 44.4202 2.61109 44.0884 4.30005 43.3527L12.2595 39.8847L17.8103 45.8449C18.0239 46.0746 18.3067 46.1932 18.591 46.1932C18.8046 46.1932 19.0181 46.1271 19.2053 45.992L19.7461 45.6017L20.4658 48.5533L19.4688 69.2248H12.8793V61.7393C12.8793 61.0757 12.3829 60.5397 11.7714 60.5397C11.1599 60.5397 10.6634 61.0772 10.6634 61.7393V69.2248H3.38346C2.74005 69.2248 2.21589 68.6558 2.21589 67.9562ZM37.4108 69.2248V61.7393C37.4108 61.0757 36.9144 60.5397 36.3029 60.5397C35.6914 60.5397 35.1949 61.0772 35.1949 61.7393V69.2248H28.6055L27.6043 48.5533L28.3268 45.6002L28.869 45.992C29.0562 46.1271 29.2711 46.1932 29.4833 46.1932C29.7675 46.1932 30.0504 46.0746 30.264 45.8449L35.8148 39.8847L41.8648 42.521V69.2248H37.4108ZM67.8661 73.6416C67.8661 74.3532 67.3323 74.9312 66.675 74.9312H45.2691C44.6145 74.9312 44.0821 74.3532 44.0821 73.6416V41.6923C44.0821 41.6908 44.0821 41.6908 44.0821 41.6893V38.0891C44.0821 37.3805 44.6145 36.804 45.2691 36.804H66.675C67.3323 36.804 67.8661 37.3805 67.8661 38.0891V73.6416ZM8.17855 51.4988C7.56564 51.4988 7.0706 50.9614 7.0706 50.2993C7.0706 49.6372 7.56703 49.0997 8.17855 49.0997H14.1024C14.7153 49.0997 15.2103 49.6372 15.2103 50.2993C15.2103 50.9614 14.7139 51.4988 14.1024 51.4988H8.17855ZM64.9638 47.729L56.5024 44.5042C56.1516 44.3736 55.7841 44.3751 55.4388 44.5072L46.976 47.7305C46.2758 48.0008 45.8404 48.7499 45.9166 49.5591C46.3631 54.0631 47.4087 57.7127 49.1115 60.7169C50.6063 63.3532 52.5823 65.4355 55.1574 67.0854C55.4125 67.246 55.6912 67.3271 55.9713 67.3271C56.2528 67.3271 56.5343 67.2461 56.7922 67.0824C59.3631 65.4355 61.3391 63.3547 62.8339 60.7169C64.5368 57.7127 65.5823 54.0631 66.0274 49.5726C66.1162 48.7634 65.6808 48.0053 64.9638 47.729ZM55.9727 64.8139C51.4661 61.7888 48.977 57.0026 48.1755 49.8189L55.9755 46.8478L63.7713 49.8189C62.9657 57.0071 60.4766 61.7933 55.9727 64.8139ZM54.8828 57.1512L59.6058 52.0378C60.0384 51.5694 60.7401 51.5694 61.1727 52.0378C61.6053 52.5062 61.6053 53.2659 61.1727 53.7343L55.6663 59.696C55.4499 59.9302 55.1657 60.0473 54.8828 60.0473C54.5999 60.0473 54.3157 59.9302 54.0993 59.696L50.7699 56.0913C50.3373 55.6229 50.3373 54.8633 50.7699 54.3948C51.2026 53.9264 51.9042 53.9264 52.3369 54.3948L54.8828 57.1512Z" fill="white"/>
</svg>
