<svg width="78" height="78" viewBox="0 0 78 78" fill="none" xmlns="http://www.w3.org/2000/svg">
<path d="M37.4398 14.573C37.4398 14.331 37.5359 14.099 37.707 13.9279C37.8781 13.7567 38.1101 13.6606 38.3521 13.6605H52.4105C52.6526 13.6605 52.8848 13.7567 53.056 13.9279C53.2271 14.0991 53.3233 14.3312 53.3233 14.5733C53.3233 14.8154 53.2271 15.0476 53.056 15.2188C52.8848 15.39 52.6526 15.4861 52.4105 15.4861H38.3526C38.2327 15.4862 38.1139 15.4626 38.0031 15.4167C37.8924 15.3708 37.7917 15.3036 37.7069 15.2188C37.6222 15.134 37.5549 15.0333 37.5091 14.9225C37.4632 14.8117 37.4397 14.6929 37.4398 14.573ZM38.3526 21.774H59.4392C59.6811 21.774 59.9132 21.6779 60.0843 21.5068C60.2554 21.3357 60.3515 21.1036 60.3515 20.8617C60.3515 20.6197 60.2554 20.3876 60.0843 20.2165C59.9132 20.0454 59.6811 19.9493 59.4392 19.9493H38.3526C38.1106 19.9493 37.8785 20.0454 37.7074 20.2165C37.5363 20.3876 37.4402 20.6197 37.4402 20.8617C37.4402 21.1036 37.5363 21.3357 37.7074 21.5068C37.8785 21.6779 38.1106 21.774 38.3526 21.774ZM20.2296 31.6056H27.5633C27.8053 31.6056 28.0374 31.5095 28.2085 31.3384C28.3796 31.1673 28.4757 30.9353 28.4757 30.6933C28.4757 30.4513 28.3796 30.2193 28.2085 30.0482C28.0374 29.8771 27.8053 29.7809 27.5633 29.7809H20.2296C19.9876 29.7809 19.7556 29.8771 19.5845 30.0482C19.4134 30.2193 19.3172 30.4513 19.3172 30.6933C19.3172 30.9353 19.4134 31.1673 19.5845 31.3384C19.7556 31.5095 19.9876 31.6056 20.2296 31.6056ZM49.301 37.4481H20.2296C19.9876 37.4481 19.7556 37.5442 19.5845 37.7153C19.4134 37.8864 19.3172 38.1185 19.3172 38.3605C19.3172 38.6024 19.4134 38.8345 19.5845 39.0056C19.7556 39.1767 19.9876 39.2728 20.2296 39.2728H49.301C49.5429 39.2728 49.775 39.1767 49.9461 39.0056C50.1172 38.8345 50.2133 38.6024 50.2133 38.3605C50.2133 38.1185 50.1172 37.8864 49.9461 37.7153C49.775 37.5442 49.5429 37.4481 49.301 37.4481ZM62.1355 52.7823H45.6617C45.4197 52.7823 45.1877 52.8784 45.0166 53.0495C44.8455 53.2206 44.7494 53.4527 44.7494 53.6947C44.7494 53.9366 44.8455 54.1687 45.0166 54.3398C45.1877 54.5109 45.4197 54.607 45.6617 54.607H62.1355C62.3774 54.607 62.6095 54.5109 62.7806 54.3398C62.9517 54.1687 63.0478 53.9366 63.0478 53.6947C63.0478 53.4527 62.9517 53.2206 62.7806 53.0495C62.6095 52.8784 62.3774 52.7823 62.1355 52.7823ZM75.5195 38.1391C74.321 40.6963 72.4633 42.8882 70.1373 44.4898V71.4835C70.1372 71.7254 70.0411 71.9574 69.87 72.1285C69.6989 72.2996 69.4669 72.3958 69.2249 72.3958H64.8185V76.4225C64.8184 76.6645 64.7223 76.8965 64.5512 77.0676C64.3801 77.2387 64.1481 77.3348 63.9061 77.3348H7.82132C7.57936 77.3348 7.34733 77.2387 7.17624 77.0676C7.00515 76.8965 6.90901 76.6645 6.90897 76.4225V59.781C4.85243 58.8665 3.1052 57.3754 1.87893 55.4881C0.652667 53.6008 0 51.3984 0 49.1477C0 46.8971 0.652667 44.6947 1.87893 42.8074C3.1052 40.9201 4.85243 39.4289 6.90897 38.5145V6.31639C6.90897 6.07442 7.0051 5.84236 7.17619 5.67126C7.34729 5.50017 7.57935 5.40405 7.82132 5.40405H12.2278V1.37719C12.2278 1.13522 12.3239 0.90316 12.495 0.732063C12.6661 0.560965 12.8982 0.464844 13.1401 0.464844H69.2249C69.4669 0.464884 69.6989 0.561018 69.87 0.732107C70.0411 0.903195 70.1372 1.13523 70.1373 1.37719V23.4858C71.9242 24.6058 73.8808 25.4449 75.8102 25.3718C76.0207 25.3641 76.2274 25.4293 76.3954 25.5565C76.5634 25.6836 76.6823 25.8649 76.732 26.0696C77.7184 30.1132 77.2905 34.3726 75.5195 38.1391ZM8.73366 37.8719C9.68409 37.6268 10.6618 37.5031 11.6433 37.5038C11.8392 37.5038 12.0341 37.5088 12.2278 37.5189V7.22873H8.73366V37.8719ZM11.6433 58.9662C13.5852 58.9662 15.4835 58.3904 17.0982 57.3115C18.7128 56.2327 19.9713 54.6992 20.7144 52.9051C21.4575 51.111 21.652 49.1368 21.2731 47.2322C20.8943 45.3276 19.9592 43.5782 18.586 42.205C17.2129 40.8319 15.4634 39.8967 13.5588 39.5179C11.6542 39.139 9.68 39.3335 7.88591 40.0766C6.09181 40.8198 4.55837 42.0782 3.4795 43.6929C2.40063 45.3075 1.82478 47.2058 1.82478 49.1477C1.82774 51.7509 2.86313 54.2465 4.70382 56.0872C6.54451 57.9279 9.04016 58.9633 11.6433 58.9662ZM62.9938 72.3965H13.1401C12.8982 72.3965 12.6661 72.3004 12.495 72.1293C12.3239 71.9582 12.2278 71.7262 12.2278 71.4842V60.7754C12.0341 60.7854 11.8392 60.7905 11.6433 60.7905C10.6618 60.7911 9.68411 60.6674 8.73366 60.4223V75.5099H62.9938V72.3965ZM68.3126 45.5528C67.8263 45.7924 67.3273 46.0053 66.8179 46.1907C66.6167 46.2638 66.3962 46.2638 66.1951 46.1907C62.7863 44.9536 59.9469 42.5196 58.0878 39.2736H52.844C52.602 39.2736 52.3699 39.1774 52.1988 39.0063C52.0278 38.8352 51.9316 38.6032 51.9316 38.3612C51.9316 38.1192 52.0278 37.8872 52.1988 37.7161C52.3699 37.545 52.602 37.4489 52.844 37.4489H57.1828C56.3995 35.5924 55.934 33.6173 55.806 31.6064H31.1065C30.8645 31.6064 30.6325 31.5103 30.4614 31.3392C30.2903 31.1681 30.1941 30.936 30.1941 30.694C30.1941 30.4521 30.2903 30.22 30.4614 30.0489C30.6325 29.8778 30.8645 29.7817 31.1065 29.7817H55.7786C55.8204 28.5307 55.9888 27.2872 56.2814 26.0702C56.3309 25.8653 56.4498 25.6839 56.6178 25.5567C56.7859 25.4295 56.9928 25.3644 57.2034 25.3724C60.3147 25.4946 63.5028 23.2333 65.9304 21.2524C66.0933 21.1196 66.297 21.0471 66.5072 21.0471C66.7173 21.0471 66.921 21.1196 67.0839 21.2524C67.4751 21.5717 67.8862 21.898 68.3134 22.2204V2.28968H14.0525V37.7559C15.9763 38.1669 17.7653 39.057 19.2535 40.3436C20.7417 41.6302 21.8811 43.2717 22.5659 45.1159H62.1355C62.3774 45.1159 62.6095 45.212 62.7806 45.3831C62.9517 45.5542 63.0478 45.7863 63.0478 46.0282C63.0478 46.2702 62.9517 46.5023 62.7806 46.6734C62.6095 46.8445 62.3774 46.9406 62.1355 46.9406H23.0739C23.4521 48.8878 23.3241 50.8995 22.7021 52.7831H42.1395C42.3815 52.7831 42.6136 52.8792 42.7847 53.0503C42.9558 53.2214 43.0519 53.4535 43.0519 53.6954C43.0519 53.9374 42.9558 54.1694 42.7847 54.3405C42.6136 54.5116 42.3815 54.6078 42.1395 54.6078H21.9223C21.1217 56.1101 20.0026 57.4193 18.6431 58.4438C17.2836 59.4683 15.7166 60.1833 14.0519 60.5388V70.572H68.3126V45.5528ZM75.11 27.188C71.9283 27.0095 68.9123 25.0331 66.5065 23.1295C64.1008 25.0329 61.0842 27.0092 57.903 27.188C56.4343 34.5902 60.0394 41.8259 66.5065 44.3576C72.9734 41.8252 76.5786 34.5895 75.11 27.1873V27.188ZM36.6757 59.6714C34.9135 59.6645 33.2316 59.7921 30.4046 60.4258C30.3622 60.3322 30.3056 60.2457 30.2368 60.1693C29.7125 59.5786 29.0086 59.8949 28.1935 60.2609C27.9143 60.3863 27.6646 60.4991 27.4414 60.6001L27.2151 60.7022C27.213 60.4384 27.1799 60.1758 27.1166 59.9198C27.0829 59.7863 27.02 59.6619 26.9326 59.5555C26.8452 59.4491 26.7353 59.3634 26.6109 59.3045C26.1507 59.0891 25.781 59.2608 24.7946 59.7197C24.2062 59.9936 23.4367 60.3685 22.6938 60.7316C21.6667 61.2331 20.2687 61.9157 19.9369 62.027C19.7132 62.0685 19.513 62.192 19.3756 62.3734C19.2383 62.5547 19.1736 62.7809 19.1944 63.0075C19.2152 63.2341 19.3199 63.4447 19.488 63.5981C19.656 63.7514 19.8753 63.8365 20.1029 63.8365C20.1232 63.8365 20.1437 63.8365 20.1644 63.8345C20.5001 63.8121 20.9358 63.6206 23.4947 62.371C24.0369 62.1063 24.6786 61.7929 25.2242 61.5338C25.1318 61.8391 25.0129 62.3691 25.4656 62.771C25.9518 63.203 26.5614 62.9646 26.8544 62.8499C27.1474 62.7353 27.5635 62.5471 28.1928 62.2627L28.6907 62.0381C29.1792 62.5812 30.0057 62.3893 30.46 62.284C33.2835 61.6304 34.8533 61.4945 36.5572 61.4945C36.5958 61.4945 36.6356 61.4955 36.6729 61.4945C36.9148 61.4949 37.1471 61.3992 37.3185 61.2284C37.4899 61.0576 37.5864 60.8257 37.5868 60.5837C37.5872 60.3417 37.4915 60.1095 37.3207 59.9381C37.1499 59.7667 36.918 59.6702 36.676 59.6698L36.6757 59.6714ZM73.1703 32.6602V34.6314C73.1698 35.1002 72.9833 35.5497 72.6518 35.8812C72.3203 36.2127 71.8709 36.3992 71.4021 36.3997H69.2596V38.5421C69.2592 39.011 69.0727 39.4605 68.7412 39.792C68.4097 40.1235 67.9602 40.31 67.4914 40.3105H65.5208C65.052 40.31 64.6025 40.1235 64.271 39.792C63.9395 39.4605 63.753 39.011 63.7525 38.5421V36.3997H61.6101C61.1413 36.3992 60.6918 36.2127 60.3603 35.8812C60.0288 35.5497 59.8424 35.1002 59.8419 34.6314V32.6598C59.8424 32.191 60.0288 31.7415 60.3603 31.41C60.6918 31.0784 61.1413 30.8919 61.6101 30.8914H63.7525V28.7497C63.7531 28.2809 63.9395 27.8314 64.271 27.4999C64.6025 27.1684 65.052 26.982 65.5208 26.9815H67.492C67.9608 26.982 68.4103 27.1684 68.7418 27.4999C69.0733 27.8314 69.2597 28.2809 69.2602 28.7497V30.8914H71.4027C71.8714 30.8921 72.3207 31.0787 72.6521 31.4102C72.9834 31.7417 73.1698 32.1911 73.1703 32.6598V32.6602ZM71.3456 32.7167H68.3479C68.1059 32.7166 67.8739 32.6205 67.7028 32.4494C67.5317 32.2782 67.4356 32.0462 67.4356 31.8042V28.8063H65.5772V31.8039C65.5772 32.0459 65.4811 32.2779 65.31 32.4491C65.1389 32.6202 64.9069 32.7163 64.6649 32.7164H61.6672V34.5747H64.6652C64.785 34.5747 64.9036 34.5983 65.0143 34.6442C65.125 34.69 65.2256 34.7572 65.3103 34.8419C65.395 34.9266 65.4622 35.0272 65.5081 35.1379C65.5539 35.2486 65.5775 35.3672 65.5775 35.487V38.4848H67.4359V35.4869C67.4359 35.2449 67.532 35.0129 67.7031 34.8418C67.8742 34.6707 68.1062 34.5746 68.3482 34.5746H71.3459L71.3456 32.7167ZM23.6223 11.43C23.6223 10.6874 23.8425 9.96154 24.2551 9.34411C24.6676 8.72669 25.254 8.24546 25.94 7.96128C26.6261 7.67711 27.381 7.60274 28.1093 7.7476C28.8376 7.89246 29.5066 8.25003 30.0316 8.77509C30.5567 9.30016 30.9143 9.96914 31.0592 10.6974C31.2041 11.4257 31.1298 12.1806 30.8456 12.8667C30.5615 13.5527 30.0803 14.1391 29.4629 14.5517C28.8455 14.9643 28.1196 15.1845 27.377 15.1845C26.3816 15.1835 25.4272 14.7875 24.7233 14.0837C24.0194 13.3798 23.6234 12.4254 23.6223 11.43ZM25.447 11.43C25.447 11.8117 25.5602 12.1848 25.7722 12.5021C25.9843 12.8195 26.2857 13.0669 26.6383 13.2129C26.9909 13.359 27.3789 13.3972 27.7533 13.3228C28.1276 13.2483 28.4715 13.0645 28.7414 12.7947C29.0113 12.5248 29.1951 12.1809 29.2696 11.8066C29.3441 11.4322 29.3059 11.0442 29.1598 10.6916C29.0138 10.3389 28.7665 10.0375 28.4491 9.82547C28.1318 9.61339 27.7587 9.50018 27.377 9.50016C26.8653 9.50047 26.3746 9.7039 26.0127 10.0657C25.6508 10.4276 25.4474 10.9183 25.447 11.43ZM19.5259 23.9818C19.4403 23.8779 19.3787 23.7565 19.3455 23.6261C19.3123 23.4956 19.3084 23.3595 19.334 23.2274C19.6971 21.3608 20.6982 19.6787 22.1656 18.4692C23.633 17.2598 25.4754 16.5984 27.3769 16.5984C29.2785 16.5984 31.1209 17.2598 32.5883 18.4692C34.0557 19.6787 35.0567 21.3608 35.4199 23.2274C35.4454 23.3594 35.4414 23.4955 35.4082 23.6258C35.375 23.7561 35.3134 23.8775 35.2278 23.9813C35.1422 24.085 35.0347 24.1685 34.9131 24.2259C34.7914 24.2832 34.6586 24.3129 34.5241 24.3129H20.2296C20.0951 24.313 19.9623 24.2833 19.8407 24.2261C19.719 24.1688 19.6116 24.0854 19.5259 23.9818ZM21.4378 22.4881H33.3161C32.8512 21.2908 32.0354 20.2619 30.9755 19.5365C29.9157 18.811 28.6613 18.4228 27.3769 18.4228C26.0926 18.4228 24.8382 18.811 23.7783 19.5365C22.7185 20.2619 21.9026 21.2908 21.4378 22.4881ZM12.5556 55.4646V54.9379C13.4331 54.9035 14.262 54.5264 14.8643 53.8874C15.4666 53.2484 15.7942 52.3987 15.7768 51.5208C15.7593 50.6428 15.3981 49.8068 14.7708 49.1923C14.1435 48.5779 13.3002 48.234 12.4221 48.2346H10.8645C10.4617 48.2306 10.0768 48.0678 9.79337 47.7816C9.50997 47.4954 9.35099 47.1088 9.35099 46.7061C9.35099 46.3033 9.50997 45.9167 9.79337 45.6305C10.0768 45.3443 10.4617 45.1815 10.8645 45.1775H12.4221C12.8274 45.1779 13.2159 45.3392 13.5025 45.6257C13.789 45.9123 13.9502 46.3009 13.9506 46.7061C13.9506 46.9481 14.0467 47.1802 14.2178 47.3512C14.3889 47.5223 14.621 47.6185 14.863 47.6185C15.1049 47.6185 15.337 47.5223 15.5081 47.3512C15.6792 47.1802 15.7753 46.9481 15.7753 46.7061C15.7741 45.8404 15.4385 45.0086 14.8385 44.3844C14.2386 43.7603 13.4207 43.3921 12.5556 43.3567V42.8298C12.5556 42.5879 12.4595 42.3558 12.2884 42.1847C12.1173 42.0136 11.8853 41.9175 11.6433 41.9175C11.4013 41.9175 11.1693 42.0136 10.9982 42.1847C10.8271 42.3558 10.7309 42.5879 10.7309 42.8298V43.3567C9.85422 43.392 9.02626 43.7696 8.42476 44.4084C7.82326 45.0472 7.49615 45.8964 7.51362 46.7737C7.5311 47.6509 7.89177 48.4864 8.51823 49.1007C9.1447 49.7151 9.98703 50.0594 10.8645 50.0598H12.4221C12.8249 50.0638 13.2098 50.2266 13.4932 50.5128C13.7766 50.7991 13.9356 51.1856 13.9356 51.5884C13.9356 51.9912 13.7766 52.3777 13.4932 52.6639C13.2098 52.9502 12.8249 53.113 12.4221 53.117H10.8645C10.4592 53.1165 10.0707 52.9553 9.78417 52.6687C9.49762 52.3822 9.33643 51.9937 9.33595 51.5884C9.33595 51.3465 9.23983 51.1144 9.06873 50.9433C8.89764 50.7722 8.66558 50.6761 8.42361 50.6761C8.18164 50.6761 7.94958 50.7722 7.77849 50.9433C7.60739 51.1144 7.51127 51.3465 7.51127 51.5884C7.51245 52.4542 7.84808 53.286 8.44804 53.9102C9.04801 54.5343 9.86592 54.9025 10.7309 54.9379V55.4646C10.7309 55.7065 10.8271 55.9386 10.9982 56.1097C11.1693 56.2808 11.4013 56.3769 11.6433 56.3769C11.8853 56.3769 12.1173 56.2808 12.2884 56.1097C12.4595 55.9386 12.5556 55.7065 12.5556 55.4646Z" fill="white"/>
</svg>
