<svg width="57" height="78" viewBox="0 0 57 78" fill="none" xmlns="http://www.w3.org/2000/svg">
<path d="M54.6223 24.1925C54.1145 23.4851 53.7089 22.7097 53.4173 21.8892C53.2486 20.9966 53.2069 20.0847 53.2936 19.1805C53.5049 17.6035 53.2636 15.9989 52.5979 14.5538C51.6703 13.2431 50.3882 12.224 48.902 11.6161C48.0881 11.2476 47.3307 10.7652 46.6525 10.1835C46.0713 9.50503 45.5889 8.74766 45.2199 7.93397C44.6122 6.44733 43.5931 5.1648 42.2822 4.23682C40.8375 3.57266 39.2341 3.33188 37.6581 3.54243C36.7534 3.62915 35.841 3.58748 34.9481 3.41867C34.127 3.12764 33.3512 2.72221 32.6435 2.21439C31.3558 1.21619 29.8085 0.60892 28.1857 0.464844C26.5626 0.608651 25.0151 1.21574 23.7272 2.21388C23.0198 2.72141 22.2444 3.12682 21.4239 3.41816C20.5312 3.58562 19.6194 3.62728 18.7152 3.54192C17.1382 3.33107 15.5337 3.57231 14.0885 4.23759C12.7779 5.16539 11.759 6.44765 11.1514 7.93397C10.7829 8.74787 10.3005 9.50526 9.7188 10.1834C9.04028 10.7647 8.28291 11.2471 7.4692 11.6161C5.98254 12.2239 4.7 13.243 3.77201 14.5538C3.10793 15.9985 2.86715 17.6019 3.07762 19.1779C3.16437 20.0825 3.1227 20.9949 2.95386 21.8879C2.66262 22.709 2.25697 23.4848 1.74892 24.1925C0.750939 25.4802 0.143891 27.0274 0 28.6502C0.143808 30.2732 0.750908 31.8208 1.74905 33.1086C2.25682 33.816 2.66244 34.5914 2.95399 35.4119C3.12276 36.3045 3.16442 37.2164 3.07775 38.1206C2.86644 39.6976 3.10771 41.3022 3.77342 42.7473C4.70101 44.058 5.9831 45.0771 7.46933 45.685C8.28324 46.0535 9.04064 46.5359 9.7188 47.1176C10.3 47.7959 10.7823 48.553 11.1514 49.3665C11.5128 50.0978 11.9289 50.8008 12.3959 51.4696L5.20218 71.2337C5.11974 71.4605 5.10302 71.706 5.15396 71.9419C5.20489 72.1777 5.32141 72.3944 5.49009 72.567C5.65877 72.7395 5.87275 72.861 6.10741 72.9172C6.34206 72.9735 6.58784 72.9624 6.81645 72.8851L13.6164 70.5882L17.3498 76.7199C17.4642 76.9077 17.625 77.0629 17.8167 77.1706C18.0085 77.2783 18.2247 77.3349 18.4446 77.3348C18.4858 77.3348 18.5284 77.3323 18.5709 77.3286C18.8111 77.3048 19.0397 77.2137 19.2303 77.0656C19.4209 76.9175 19.5657 76.7185 19.6481 76.4916L26.8695 56.6541C27.7303 56.8972 28.6416 56.8972 29.5023 56.6541L36.7237 76.4916C36.8061 76.7185 36.9509 76.9175 37.1415 77.0656C37.3321 77.2137 37.5607 77.3048 37.801 77.3286C37.8435 77.3323 37.886 77.3348 37.9273 77.3348C38.1472 77.3349 38.3634 77.2783 38.5551 77.1706C38.7468 77.0629 38.9076 76.9077 39.022 76.7199L42.7555 70.5882L49.5555 72.885C49.7841 72.9623 50.0299 72.9734 50.2646 72.9171C50.4992 72.8608 50.7132 72.7394 50.8819 72.5669C51.0506 72.3943 51.1671 72.1776 51.218 71.9417C51.269 71.7059 51.2522 71.4604 51.1698 71.2336L43.9755 51.4686C44.4422 50.7999 44.8582 50.0972 45.2199 49.3664C45.5885 48.5525 46.0708 47.7951 46.6525 47.1169C47.3311 46.5356 48.0884 46.0533 48.9021 45.6843C50.3888 45.0766 51.6713 44.0575 52.5993 42.7466C53.2634 41.302 53.5042 39.6986 53.2937 38.1226C53.207 37.2179 53.2486 36.3055 53.4175 35.4125C53.7087 34.5915 54.1144 33.8157 54.6224 33.108C55.6204 31.8203 56.2274 30.273 56.3713 28.6502C56.2274 27.0274 55.6203 25.4801 54.6223 24.1925ZM18.1527 73.1102L15.2727 68.3797C15.1212 68.1312 14.8896 67.9416 14.616 67.8423C14.3425 67.7429 14.0432 67.7396 13.7675 67.833L8.52155 69.6046L14.4731 53.2524C15.8277 53.7501 17.2801 53.9233 18.7137 53.7579C19.6184 53.6719 20.5307 53.7135 21.4238 53.8817C22.2448 54.1729 23.0207 54.5785 23.7284 55.0866C23.9883 55.252 24.2574 55.421 24.532 55.5862L18.1527 73.1102ZM42.6038 67.833C42.3281 67.7396 42.0289 67.7429 41.7553 67.8423C41.4817 67.9416 41.2501 68.1312 41.0987 68.3797L38.2186 73.1102L31.8398 55.5869C32.1145 55.4203 32.3835 55.252 32.6435 55.0866C33.3509 54.5788 34.1263 54.1732 34.9468 53.8817C35.8394 53.7135 36.7513 53.6718 37.6555 53.7579C39.0899 53.924 40.5433 53.7505 41.8983 53.2512L47.8498 69.6046L42.6038 67.833ZM52.4603 31.7318C51.8043 32.6553 51.2926 33.6733 50.9426 34.7507C50.6981 35.8916 50.6273 37.063 50.7324 38.2251C50.8943 39.3171 50.7733 40.4324 50.3809 41.4643C49.6759 42.3329 48.7583 43.0044 47.7172 43.4135C46.6679 43.8943 45.698 44.5322 44.8408 45.3052C44.067 46.162 43.4287 47.1319 42.9479 48.1815C42.5387 49.2227 41.8672 50.1403 40.9986 50.8452C39.9665 51.2366 38.8515 51.3577 37.7594 51.1967C36.5973 51.0923 35.426 51.1631 34.2849 51.407C33.208 51.7572 32.1905 52.2689 31.2673 52.9246C30.376 53.6365 29.3133 54.1016 28.1857 54.2733C27.058 54.1016 25.9953 53.6365 25.1041 52.9246C24.1805 52.2687 23.1626 51.7569 22.0851 51.407C21.3662 51.2301 20.6271 51.1483 19.8869 51.1636C19.459 51.1636 19.0324 51.181 18.6107 51.1973C17.5187 51.3585 16.4035 51.2375 15.3714 50.8457C14.5029 50.1408 13.8314 49.2232 13.4223 48.1821C12.9415 47.1326 12.3035 46.1625 11.5305 45.3052C10.6738 44.5314 9.70377 43.8931 8.65415 43.4123C7.613 43.0032 6.69539 42.3317 5.99048 41.463C5.59816 40.4312 5.47712 39.3159 5.63893 38.2239C5.74404 37.0618 5.67317 35.8904 5.42869 34.7494C5.07847 33.6725 4.56675 32.655 3.91102 31.7318C3.19911 30.8406 2.73401 29.7779 2.56233 28.6502C2.73401 27.5226 3.19911 26.4599 3.91102 25.5687C4.56701 24.6451 5.07875 23.6272 5.42869 22.5498C5.6732 21.4088 5.74408 20.2375 5.63893 19.0754C5.47702 17.9833 5.59807 16.868 5.99048 15.8361C6.69541 14.9676 7.61302 14.2961 8.65415 13.887C9.70344 13.4061 10.6734 12.7682 11.5305 11.9952C12.3043 11.1385 12.9427 10.1685 13.4234 9.11891C13.8326 8.07777 14.5041 7.16017 15.3727 6.45526C16.4047 6.06318 17.5199 5.94215 18.6119 6.10371C19.7741 6.20815 20.9453 6.13728 22.0864 5.89348C23.1633 5.54327 24.1808 5.03155 25.1041 4.37582C25.9953 3.66393 27.058 3.19883 28.1857 3.02715C29.3133 3.19883 30.376 3.66393 31.2673 4.37582C32.1908 5.03181 33.2088 5.54354 34.2862 5.89348C35.4272 6.13728 36.5985 6.20815 37.7606 6.10371C38.8527 5.94189 39.968 6.06293 40.9999 6.45526C41.8685 7.16018 42.5399 8.07778 42.9491 9.11891C43.4299 10.1682 44.0678 11.1381 44.8408 11.9952C45.6976 12.769 46.6676 13.4074 47.7172 13.8881C48.7583 14.2973 49.6759 14.9688 50.3809 15.8374C50.7732 16.8693 50.8942 17.9845 50.7324 19.0766C50.6273 20.2387 50.6982 21.41 50.9426 22.551C51.2929 23.6279 51.8046 24.6454 52.4603 25.5687C53.1722 26.4599 53.6373 27.5226 53.809 28.6502C53.6373 29.7779 53.1722 30.8406 52.4603 31.7318Z" fill="white"/>
<path d="M28.1858 8.15234C24.1316 8.15234 20.1683 9.35456 16.7974 11.607C13.4264 13.8594 10.799 17.0608 9.24751 20.8064C7.69602 24.552 7.29007 28.6735 8.08102 32.6499C8.87196 36.6262 10.8243 40.2786 13.6911 43.1454C16.5579 46.0122 20.2104 47.9645 24.1867 48.7554C28.1631 49.5463 32.2847 49.1404 36.0303 47.5889C39.776 46.0374 42.9774 43.4101 45.2298 40.0391C47.4822 36.6682 48.6845 32.705 48.6845 28.6508C48.6783 23.2162 46.5166 18.0059 42.6737 14.1631C38.8308 10.3202 33.6205 8.15855 28.1858 8.15234ZM28.1858 46.587C24.6383 46.587 21.1705 45.535 18.2209 43.5642C15.2713 41.5933 12.9724 38.7921 11.6148 35.5147C10.2572 32.2373 9.90204 28.6309 10.5941 25.1516C11.2862 21.6724 12.9945 18.4764 15.5029 15.968C18.0113 13.4596 21.2073 11.7514 24.6866 11.0593C28.1659 10.3672 31.7723 10.7224 35.0497 12.08C38.3272 13.4375 41.1285 15.7364 43.0993 18.686C45.0702 21.6356 46.1221 25.1034 46.1221 28.6508C46.1168 33.4061 44.2253 37.9651 40.8628 41.3277C37.5002 44.6902 32.9412 46.5816 28.1858 46.587Z" fill="white"/>
<path d="M32.7825 22.2576L29.3344 15.2713C29.2167 15.0712 29.0489 14.9054 28.8474 14.7901C28.646 14.6749 28.4179 14.6143 28.1858 14.6143C27.9537 14.6143 27.7257 14.6749 27.5242 14.7901C27.3228 14.9054 27.1549 15.0712 27.0373 15.2713L23.5891 22.2576L15.8784 23.3786C15.6419 23.413 15.4198 23.5128 15.2371 23.6668C15.0544 23.8208 14.9184 24.0228 14.8445 24.25C14.7705 24.4773 14.7616 24.7207 14.8188 24.9527C14.8759 25.1847 14.9968 25.3961 15.1678 25.5631L20.7477 31.0017L19.4303 38.6825C19.39 38.9181 19.4164 39.1603 19.5065 39.3817C19.5967 39.603 19.747 39.7948 19.9404 39.9352C20.1338 40.0757 20.3627 40.1592 20.6011 40.1764C20.8395 40.1936 21.078 40.1437 21.2896 40.0324L28.1858 36.4066L35.0821 40.0323C35.2936 40.1436 35.5321 40.1934 35.7705 40.1763C36.009 40.1591 36.2378 40.0756 36.4312 39.9351C36.6247 39.7947 36.7749 39.6029 36.8651 39.3815C36.9552 39.1601 36.9816 38.9179 36.9413 38.6823L35.6239 31.0016L41.2039 25.5629C41.3749 25.396 41.4957 25.1846 41.5529 24.9526C41.61 24.7205 41.6011 24.4772 41.5272 24.2499C41.4532 24.0227 41.3172 23.8207 41.1345 23.6667C40.9518 23.5127 40.7297 23.4128 40.4932 23.3784L32.7825 22.2576ZM33.353 29.638C33.2045 29.783 33.0934 29.9619 33.0293 30.1594C32.9652 30.3568 32.9501 30.5669 32.9852 30.7715L33.9773 36.5568L28.7826 33.8255C28.5986 33.7285 28.3938 33.6779 28.1858 33.6779C27.9779 33.6779 27.773 33.7285 27.5891 33.8255L22.3949 36.5568L23.3871 30.7715C23.4222 30.5669 23.407 30.3568 23.343 30.1594C23.2789 29.9619 23.1678 29.783 23.0193 29.638L18.8154 25.5405L24.6244 24.6961C24.83 24.6664 25.0253 24.5871 25.1934 24.465C25.3615 24.343 25.4973 24.1818 25.5891 23.9954L28.1858 18.7335L30.7831 23.9957C30.875 24.182 31.0108 24.3432 31.1789 24.4653C31.347 24.5874 31.5422 24.6667 31.7478 24.6964L37.5569 25.5408L33.353 29.638Z" fill="white"/>
</svg>
