<?xml version="1.0" encoding="utf-8"?>
<!-- Generator: Adobe Illustrator 27.5.0, SVG Export Plug-In . SVG Version: 6.00 Build 0)  -->
<svg version="1.1" xmlns="http://www.w3.org/2000/svg" xmlns:xlink="http://www.w3.org/1999/xlink" x="0px" y="0px"
	 viewBox="0 0 750 500" style="enable-background:new 0 0 750 500;" xml:space="preserve">
<g id="Background_complete">
	<g>
		<g>
			<g>
				<g>
					<g>
						<path style="fill:#E0E0E0;" d="M673.734,333.61H492.988c-3.232,0-5.862-2.63-5.862-5.862V64.475
							c0-3.232,2.63-5.862,5.862-5.862h180.746c3.232,0,5.862,2.629,5.862,5.862v263.273
							C679.596,330.98,676.966,333.61,673.734,333.61z M492.988,58.863c-3.095,0-5.612,2.518-5.612,5.612v263.273
							c0,3.095,2.518,5.612,5.612,5.612h180.746c3.095,0,5.612-2.517,5.612-5.612V64.475c0-3.094-2.518-5.612-5.612-5.612H492.988z"
							/>
					</g>
				</g>
				<g>
					<g>
						<path style="fill:#E0E0E0;" d="M465.306,333.61H284.56c-3.232,0-5.862-2.63-5.862-5.862V64.475
							c0-3.232,2.629-5.862,5.862-5.862h180.747c3.232,0,5.862,2.629,5.862,5.862v263.273
							C471.168,330.98,468.538,333.61,465.306,333.61z M284.56,58.863c-3.094,0-5.612,2.518-5.612,5.612v263.273
							c0,3.095,2.518,5.612,5.612,5.612h180.747c3.095,0,5.612-2.517,5.612-5.612V64.475c0-3.094-2.518-5.612-5.612-5.612H284.56z"
							/>
					</g>
				</g>
			</g>
			<g>
				<g>
					<g>
						<path style="fill:#E0E0E0;" d="M257.012,333.61H76.266c-3.232,0-5.862-2.63-5.862-5.862V64.475
							c0-3.232,2.629-5.862,5.862-5.862h180.746c3.232,0,5.862,2.629,5.862,5.862v263.273
							C262.875,330.98,260.245,333.61,257.012,333.61z M76.266,58.863c-3.094,0-5.612,2.518-5.612,5.612v263.273
							c0,3.095,2.518,5.612,5.612,5.612h180.746c3.095,0,5.612-2.517,5.612-5.612V64.475c0-3.094-2.518-5.612-5.612-5.612H76.266z"
							/>
					</g>
				</g>
			</g>
		</g>
		<g>
			<g>
				<rect y="394.68" style="fill:#E0E0E0;" width="750" height="0.12"/>
			</g>
		</g>
	</g>
	<path style="fill:#E6E6E6;" d="M247.427,121.58c9.925-9.556,25.717-9.256,35.272,0.669c9.298,9.658,9.301,24.938,0.005,34.598
		l-14.091,14.094c-1.956,1.956-5.128,1.956-7.084,0l-14.102-14.102C237.696,147.1,237.696,131.319,247.427,121.58z M265.068,150.808
		c6.578,0,11.875-5.484,11.569-12.129c-0.271-5.898-5.124-10.751-11.022-11.022c-6.645-0.306-12.129,4.991-12.129,11.569
		c0,0.001,0,0.002,0,0.003c0.013,6.387,5.195,11.558,11.582,11.558V150.808z"/>
	<g id="freepik--background-complete--inject-481">
		<polygon style="fill:#EBEBEB;" points="662.583,242.649 662.583,195.145 633.17,195.145 633.17,205.978 613.565,205.978 
			613.565,87.314 575.87,87.314 575.87,134.019 564.56,134.019 564.56,110.697 535.147,110.697 535.147,224.439 493.674,224.439 
			493.674,184.252 467.669,184.252 467.669,97.122 435.575,97.122 435.575,155.209 405.411,155.209 405.411,280.345 
			382.041,280.345 382.041,219.41 357.908,219.41 357.908,180.2 332.273,180.2 332.273,150.096 303.67,165.184 303.67,245.724 
			273.507,245.724 273.507,229.111 233.213,229.111 233.213,345.844 702.221,346.071 702.221,242.649 		"/>
		<path style="fill:#E6E6E6;" d="M359.874,345.906V172.227h-32.047v173.843C337.969,345.82,359.874,345.906,359.874,345.906z"/>
		<path style="fill:#FAFAFA;" d="M330.688,346.071v-95.52h-65.952v95.309L330.688,346.071z"/>
		<path style="fill:#E0E0E0;" d="M410.822,345.93V205.704H373.46v140.208L410.822,345.93z"/>
		<rect x="376.297" y="211.198" style="fill:#FAFAFA;" width="4.529" height="9.344"/>
		<rect x="385.354" y="211.198" style="fill:#FAFAFA;" width="4.529" height="9.344"/>
		<rect x="394.411" y="211.198" style="fill:#FAFAFA;" width="4.529" height="9.344"/>
		<rect x="403.469" y="211.198" style="fill:#FAFAFA;" width="4.529" height="9.344"/>
		<rect x="376.297" y="226.87" style="fill:#FAFAFA;" width="4.529" height="9.343"/>
		<rect x="385.354" y="226.87" style="fill:#FAFAFA;" width="4.529" height="9.343"/>
		<rect x="394.411" y="226.87" style="fill:#FAFAFA;" width="4.529" height="9.343"/>
		<rect x="403.469" y="226.87" style="fill:#FAFAFA;" width="4.529" height="9.343"/>
		<rect x="376.297" y="242.53" style="fill:#FAFAFA;" width="4.529" height="9.343"/>
		<rect x="385.354" y="242.53" style="fill:#FAFAFA;" width="4.529" height="9.343"/>
		<rect x="394.411" y="242.53" style="fill:#FAFAFA;" width="4.529" height="9.343"/>
		<rect x="403.469" y="242.53" style="fill:#FAFAFA;" width="4.529" height="9.343"/>
		<rect x="376.297" y="258.19" style="fill:#FAFAFA;" width="4.529" height="9.343"/>
		<rect x="385.354" y="258.19" style="fill:#FAFAFA;" width="4.529" height="9.343"/>
		<rect x="394.411" y="258.19" style="fill:#FAFAFA;" width="4.529" height="9.343"/>
		<rect x="403.469" y="258.19" style="fill:#FAFAFA;" width="4.529" height="9.343"/>
		<rect x="376.297" y="273.85" style="fill:#FAFAFA;" width="4.529" height="9.343"/>
		<rect x="385.354" y="273.85" style="fill:#FAFAFA;" width="4.529" height="9.343"/>
		<rect x="394.411" y="273.85" style="fill:#FAFAFA;" width="4.529" height="9.343"/>
		<rect x="403.469" y="273.85" style="fill:#FAFAFA;" width="4.529" height="9.343"/>
		<rect x="376.297" y="289.509" style="fill:#FAFAFA;" width="4.529" height="9.343"/>
		<rect x="385.354" y="289.509" style="fill:#FAFAFA;" width="4.529" height="9.343"/>
		<rect x="394.411" y="289.509" style="fill:#FAFAFA;" width="4.529" height="9.343"/>
		<rect x="403.469" y="289.509" style="fill:#FAFAFA;" width="4.529" height="9.343"/>
		<rect x="376.297" y="305.169" style="fill:#FAFAFA;" width="4.529" height="9.343"/>
		<rect x="385.354" y="305.169" style="fill:#FAFAFA;" width="4.529" height="9.343"/>
		<rect x="394.411" y="305.169" style="fill:#FAFAFA;" width="4.529" height="9.343"/>
		<rect x="403.469" y="305.169" style="fill:#FAFAFA;" width="4.529" height="9.343"/>
		<rect x="376.297" y="320.841" style="fill:#FAFAFA;" width="4.529" height="9.344"/>
		<rect x="385.354" y="320.841" style="fill:#FAFAFA;" width="4.529" height="9.344"/>
		<rect x="394.411" y="320.841" style="fill:#FAFAFA;" width="4.529" height="9.344"/>
		<rect x="403.469" y="320.841" style="fill:#FAFAFA;" width="4.529" height="9.344"/>
		<path style="fill:#F5F5F5;" d="M540.653,345.993V185.73h-77.465v160.317C463.188,346.047,540.06,346.071,540.653,345.993z"/>
		<rect x="469.004" y="192.118" style="fill:#E6E6E6;" width="9.391" height="10.762"/>
		<rect x="487.798" y="192.118" style="fill:#E6E6E6;" width="9.391" height="10.762"/>
		<rect x="506.581" y="192.118" style="fill:#E6E6E6;" width="9.391" height="10.762"/>
		<rect x="525.375" y="192.118" style="fill:#E6E6E6;" width="9.391" height="10.762"/>
		<rect x="469.004" y="210.173" style="fill:#E6E6E6;" width="9.391" height="10.762"/>
		<rect x="487.798" y="210.173" style="fill:#E6E6E6;" width="9.391" height="10.762"/>
		<rect x="506.581" y="210.173" style="fill:#E6E6E6;" width="9.391" height="10.762"/>
		<rect x="525.375" y="210.173" style="fill:#E6E6E6;" width="9.391" height="10.762"/>
		<rect x="469.004" y="228.217" style="fill:#E6E6E6;" width="9.391" height="10.762"/>
		<rect x="487.798" y="228.217" style="fill:#E6E6E6;" width="9.391" height="10.762"/>
		<rect x="506.581" y="228.217" style="fill:#E6E6E6;" width="9.391" height="10.762"/>
		<rect x="525.375" y="228.217" style="fill:#E6E6E6;" width="9.391" height="10.762"/>
		<rect x="469.004" y="246.26" style="fill:#E6E6E6;" width="9.391" height="10.762"/>
		<rect x="487.798" y="246.26" style="fill:#E6E6E6;" width="9.391" height="10.762"/>
		<rect x="506.581" y="246.26" style="fill:#E6E6E6;" width="9.391" height="10.762"/>
		<rect x="525.375" y="246.26" style="fill:#E6E6E6;" width="9.391" height="10.762"/>
		<rect x="469.004" y="264.315" style="fill:#E6E6E6;" width="9.391" height="10.762"/>
		<rect x="487.798" y="264.315" style="fill:#E6E6E6;" width="9.391" height="10.762"/>
		<rect x="506.581" y="264.315" style="fill:#E6E6E6;" width="9.391" height="10.762"/>
		<rect x="525.375" y="264.315" style="fill:#E6E6E6;" width="9.391" height="10.762"/>
		<rect x="469.004" y="282.359" style="fill:#E6E6E6;" width="9.391" height="10.762"/>
		<rect x="487.798" y="282.359" style="fill:#E6E6E6;" width="9.391" height="10.762"/>
		<rect x="506.581" y="282.359" style="fill:#E6E6E6;" width="9.391" height="10.762"/>
		<rect x="525.375" y="282.359" style="fill:#E6E6E6;" width="9.391" height="10.762"/>
		<rect x="469.004" y="300.414" style="fill:#E6E6E6;" width="9.391" height="10.762"/>
		<rect x="487.798" y="300.414" style="fill:#E6E6E6;" width="9.391" height="10.762"/>
		<rect x="506.581" y="300.414" style="fill:#E6E6E6;" width="9.391" height="10.762"/>
		<rect x="525.375" y="300.414" style="fill:#E6E6E6;" width="9.391" height="10.762"/>
		<rect x="469.004" y="318.457" style="fill:#E6E6E6;" width="9.391" height="10.762"/>
		<rect x="487.798" y="318.457" style="fill:#E6E6E6;" width="9.391" height="10.762"/>
		<rect x="506.581" y="318.457" style="fill:#E6E6E6;" width="9.391" height="10.762"/>
		<rect x="525.375" y="318.457" style="fill:#E6E6E6;" width="9.391" height="10.762"/>
		<rect x="333.736" y="184.032" style="fill:#FAFAFA;" width="8.654" height="9.917"/>
		<rect x="333.736" y="200.659" style="fill:#FAFAFA;" width="8.654" height="9.917"/>
		<rect x="333.736" y="217.297" style="fill:#FAFAFA;" width="8.654" height="9.917"/>
		<rect x="333.736" y="233.924" style="fill:#FAFAFA;" width="8.654" height="9.917"/>
		<rect x="333.736" y="250.551" style="fill:#FAFAFA;" width="8.654" height="9.917"/>
		<rect x="333.736" y="267.189" style="fill:#FAFAFA;" width="8.654" height="9.917"/>
		<rect x="333.736" y="283.816" style="fill:#FAFAFA;" width="8.654" height="9.917"/>
		<rect x="333.736" y="300.454" style="fill:#FAFAFA;" width="8.654" height="9.917"/>
		<rect x="345.311" y="184.032" style="fill:#FAFAFA;" width="8.654" height="9.917"/>
		<rect x="345.311" y="200.659" style="fill:#FAFAFA;" width="8.654" height="9.917"/>
		<rect x="345.311" y="217.297" style="fill:#FAFAFA;" width="8.654" height="9.917"/>
		<rect x="345.311" y="233.924" style="fill:#FAFAFA;" width="8.654" height="9.917"/>
		<rect x="345.311" y="250.551" style="fill:#FAFAFA;" width="8.654" height="9.917"/>
		<rect x="345.311" y="267.189" style="fill:#FAFAFA;" width="8.654" height="9.917"/>
		<rect x="345.311" y="283.816" style="fill:#FAFAFA;" width="8.654" height="9.917"/>
		<rect x="345.311" y="300.454" style="fill:#FAFAFA;" width="8.654" height="9.917"/>
		<rect x="442.916" y="108.648" style="fill:#FAFAFA;" width="9.391" height="10.762"/>
		<rect x="442.916" y="126.692" style="fill:#FAFAFA;" width="9.391" height="10.762"/>
		<rect x="442.916" y="143.506" style="fill:#FAFAFA;" width="9.391" height="10.762"/>
		<rect x="442.916" y="161.549" style="fill:#FAFAFA;" width="9.391" height="10.762"/>
		<rect x="442.916" y="179.593" style="fill:#FAFAFA;" width="9.391" height="10.762"/>
		<rect x="442.916" y="197.648" style="fill:#FAFAFA;" width="9.391" height="10.762"/>
		<rect x="442.916" y="215.691" style="fill:#FAFAFA;" width="9.391" height="10.762"/>
		<rect x="442.916" y="233.747" style="fill:#FAFAFA;" width="9.391" height="10.762"/>
		<rect x="583.986" y="92.999" style="fill:#FAFAFA;" width="9.391" height="10.762"/>
		<rect x="583.986" y="111.042" style="fill:#FAFAFA;" width="9.391" height="10.762"/>
		<rect x="583.986" y="129.097" style="fill:#FAFAFA;" width="9.391" height="10.762"/>
		<rect x="583.986" y="147.141" style="fill:#FAFAFA;" width="9.391" height="10.762"/>
		<rect x="583.986" y="165.196" style="fill:#FAFAFA;" width="9.391" height="10.762"/>
		<rect x="583.986" y="183.239" style="fill:#FAFAFA;" width="9.391" height="10.762"/>
		<rect x="583.986" y="201.295" style="fill:#FAFAFA;" width="9.391" height="10.762"/>
		<rect x="583.986" y="219.338" style="fill:#FAFAFA;" width="9.391" height="10.762"/>
		<rect x="604.103" y="175.91" style="fill:#E6E6E6;" width="56.561" height="170.161"/>
		<rect x="612.469" y="184.3" style="fill:#FAFAFA;" width="16.578" height="10.762"/>
		<rect x="612.469" y="202.355" style="fill:#FAFAFA;" width="16.578" height="10.762"/>
		<rect x="612.469" y="220.399" style="fill:#FAFAFA;" width="16.578" height="10.762"/>
		<rect x="612.469" y="238.454" style="fill:#FAFAFA;" width="16.578" height="10.762"/>
		<rect x="612.469" y="256.497" style="fill:#FAFAFA;" width="16.578" height="10.762"/>
		<rect x="612.469" y="274.541" style="fill:#FAFAFA;" width="16.578" height="10.762"/>
		<rect x="612.469" y="292.596" style="fill:#FAFAFA;" width="16.578" height="10.762"/>
		<rect x="612.469" y="310.639" style="fill:#FAFAFA;" width="16.578" height="10.762"/>
		<rect x="634.648" y="184.3" style="fill:#FAFAFA;" width="16.577" height="10.762"/>
		<rect x="634.648" y="202.355" style="fill:#FAFAFA;" width="16.577" height="10.762"/>
		<rect x="634.648" y="220.399" style="fill:#FAFAFA;" width="16.577" height="10.762"/>
		<rect x="634.648" y="238.454" style="fill:#FAFAFA;" width="16.577" height="10.762"/>
		<rect x="634.648" y="256.497" style="fill:#FAFAFA;" width="16.577" height="10.762"/>
		<rect x="634.648" y="274.541" style="fill:#FAFAFA;" width="16.577" height="10.762"/>
		<rect x="634.648" y="292.596" style="fill:#FAFAFA;" width="16.577" height="10.762"/>
		<rect x="634.648" y="310.639" style="fill:#FAFAFA;" width="16.577" height="10.762"/>
		<path style="fill:#E0E0E0;" d="M573.26,346.008V228.217h-24.67v117.78L573.26,346.008z"/>
		<rect x="550.461" y="232.984" style="fill:#FAFAFA;" width="2.991" height="8.021"/>
		<rect x="556.444" y="232.984" style="fill:#FAFAFA;" width="2.991" height="8.021"/>
		<rect x="562.415" y="232.984" style="fill:#FAFAFA;" width="2.991" height="8.021"/>
		<rect x="568.397" y="232.984" style="fill:#FAFAFA;" width="2.991" height="8.021"/>
		<rect x="550.461" y="246.439" style="fill:#FAFAFA;" width="2.991" height="8.021"/>
		<rect x="556.444" y="246.439" style="fill:#FAFAFA;" width="2.991" height="8.021"/>
		<rect x="562.415" y="246.439" style="fill:#FAFAFA;" width="2.991" height="8.021"/>
		<rect x="568.397" y="246.439" style="fill:#FAFAFA;" width="2.991" height="8.021"/>
		<rect x="550.461" y="259.894" style="fill:#FAFAFA;" width="2.991" height="8.021"/>
		<rect x="556.444" y="259.894" style="fill:#FAFAFA;" width="2.991" height="8.021"/>
		<rect x="562.415" y="259.894" style="fill:#FAFAFA;" width="2.991" height="8.021"/>
		<rect x="568.397" y="259.894" style="fill:#FAFAFA;" width="2.991" height="8.021"/>
		<rect x="550.461" y="273.349" style="fill:#FAFAFA;" width="2.991" height="8.021"/>
		<rect x="556.444" y="273.349" style="fill:#FAFAFA;" width="2.991" height="8.021"/>
		<rect x="562.415" y="273.349" style="fill:#FAFAFA;" width="2.991" height="8.021"/>
		<rect x="568.397" y="273.349" style="fill:#FAFAFA;" width="2.991" height="8.021"/>
		<rect x="550.461" y="286.816" style="fill:#FAFAFA;" width="2.991" height="8.021"/>
		<rect x="556.444" y="286.816" style="fill:#FAFAFA;" width="2.991" height="8.021"/>
		<rect x="562.415" y="286.816" style="fill:#FAFAFA;" width="2.991" height="8.021"/>
		<rect x="568.397" y="286.816" style="fill:#FAFAFA;" width="2.991" height="8.021"/>
		<rect x="550.461" y="300.271" style="fill:#FAFAFA;" width="2.991" height="8.021"/>
		<rect x="556.444" y="300.271" style="fill:#FAFAFA;" width="2.991" height="8.021"/>
		<rect x="562.415" y="300.271" style="fill:#FAFAFA;" width="2.991" height="8.021"/>
		<rect x="568.397" y="300.271" style="fill:#FAFAFA;" width="2.991" height="8.021"/>
		<rect x="550.461" y="313.726" style="fill:#FAFAFA;" width="2.991" height="8.021"/>
		<rect x="556.444" y="313.726" style="fill:#FAFAFA;" width="2.991" height="8.021"/>
		<rect x="562.415" y="313.726" style="fill:#FAFAFA;" width="2.991" height="8.021"/>
		<rect x="568.397" y="313.726" style="fill:#FAFAFA;" width="2.991" height="8.021"/>
		<rect x="550.461" y="327.181" style="fill:#FAFAFA;" width="2.991" height="8.021"/>
		<rect x="556.444" y="327.181" style="fill:#FAFAFA;" width="2.991" height="8.021"/>
		<rect x="562.415" y="327.181" style="fill:#FAFAFA;" width="2.991" height="8.021"/>
		<rect x="568.397" y="327.181" style="fill:#FAFAFA;" width="2.991" height="8.021"/>
		<rect x="269.729" y="254.543" style="fill:#E6E6E6;" width="7.997" height="6.734"/>
		<rect x="285.722" y="254.543" style="fill:#E6E6E6;" width="7.997" height="6.734"/>
		<rect x="301.704" y="254.543" style="fill:#E6E6E6;" width="7.997" height="6.734"/>
		<rect x="317.697" y="254.543" style="fill:#E6E6E6;" width="7.997" height="6.734"/>
		<rect x="269.729" y="265.829" style="fill:#E6E6E6;" width="7.997" height="6.733"/>
		<rect x="285.722" y="265.829" style="fill:#E6E6E6;" width="7.997" height="6.733"/>
		<rect x="301.704" y="265.829" style="fill:#E6E6E6;" width="7.997" height="6.733"/>
		<rect x="317.697" y="265.829" style="fill:#E6E6E6;" width="7.997" height="6.733"/>
		<rect x="269.729" y="277.115" style="fill:#E6E6E6;" width="7.997" height="6.734"/>
		<rect x="285.722" y="277.115" style="fill:#E6E6E6;" width="7.997" height="6.734"/>
		<rect x="301.704" y="277.115" style="fill:#E6E6E6;" width="7.997" height="6.734"/>
		<rect x="317.697" y="277.115" style="fill:#E6E6E6;" width="7.997" height="6.734"/>
		<rect x="269.729" y="288.401" style="fill:#E6E6E6;" width="7.997" height="6.733"/>
		<rect x="285.722" y="288.401" style="fill:#E6E6E6;" width="7.997" height="6.733"/>
		<rect x="301.704" y="288.401" style="fill:#E6E6E6;" width="7.997" height="6.733"/>
		<rect x="317.697" y="288.401" style="fill:#E6E6E6;" width="7.997" height="6.733"/>
		<rect x="269.729" y="299.675" style="fill:#E6E6E6;" width="7.997" height="6.733"/>
		<rect x="285.722" y="299.675" style="fill:#E6E6E6;" width="7.997" height="6.733"/>
		<rect x="301.704" y="299.675" style="fill:#E6E6E6;" width="7.997" height="6.733"/>
		<rect x="317.697" y="299.675" style="fill:#E6E6E6;" width="7.997" height="6.733"/>
		<rect x="269.729" y="310.961" style="fill:#E6E6E6;" width="7.997" height="6.734"/>
		<rect x="285.722" y="310.961" style="fill:#E6E6E6;" width="7.997" height="6.734"/>
		<rect x="301.704" y="310.961" style="fill:#E6E6E6;" width="7.997" height="6.734"/>
		<rect x="317.697" y="310.961" style="fill:#E6E6E6;" width="7.997" height="6.734"/>
		<rect x="269.729" y="322.247" style="fill:#E6E6E6;" width="7.997" height="6.733"/>
		<rect x="285.722" y="322.247" style="fill:#E6E6E6;" width="7.997" height="6.733"/>
		<rect x="301.704" y="322.247" style="fill:#E6E6E6;" width="7.997" height="6.733"/>
		<rect x="317.697" y="322.247" style="fill:#E6E6E6;" width="7.997" height="6.733"/>
	</g>
	<g>
		<rect x="653.626" y="424.056" style="fill:#EBEBEB;" width="55.729" height="0.421"/>
		<rect x="495.044" y="428.621" style="fill:#EBEBEB;" width="14.627" height="0.421"/>
		<rect x="40.645" y="411.258" style="fill:#EBEBEB;" width="72.674" height="0.421"/>
		<rect x="128.299" y="411.258" style="fill:#EBEBEB;" width="10.656" height="0.421"/>
		<rect x="173.586" y="418.362" style="fill:#EBEBEB;" width="157.613" height="0.421"/>
	</g>
</g>
<g id="Background_simple" style="display:none;">
	<g style="display:inline;">
		<g>
			<path style="fill:#89D32A;" d="M644.829,191.673c-2.448-18.694-10.359-37.432-24.292-54.938
				c-16.422-20.632-43.257-43.003-82.186-42.402c-71.868,1.108-83.498,45.437-132.297,45.549
				c-73.984,0.171-150.073,28.184-150.073,92.08c0,100.449,151.522,152.943,262.668,134.785
				C587.844,355.444,657.824,290.934,644.829,191.673z"/>
		</g>
	</g>
	<g style="display:inline;opacity:0.9;enable-background:new    ;">
		<g>
			<path style="fill:#FFFFFF;" d="M644.829,191.673c-2.448-18.694-10.359-37.432-24.292-54.938
				c-16.422-20.632-43.257-43.003-82.186-42.402c-71.868,1.108-83.498,45.437-132.297,45.549
				c-73.984,0.171-150.073,28.184-150.073,92.08c0,100.449,151.522,152.943,262.668,134.785
				C587.844,355.444,657.824,290.934,644.829,191.673z"/>
		</g>
	</g>
</g>
<g id="Shadow">
	<g>
		<g>
			<path style="fill:#F5F5F5;" d="M656.95,451.633c0,3.387-117.57,6.132-262.6,6.132s-262.6-2.745-262.6-6.132
				c0-3.387,117.57-6.132,262.6-6.132S656.95,448.246,656.95,451.633z"/>
		</g>
	</g>
</g>
<g id="Device">
	<g>
		<g>
			<path style="fill:#263238;" d="M194.253,405.967H61.683c-9.403,0-17.026-7.623-17.026-17.026V97.049
				c0-7.255,5.881-13.136,13.136-13.136h140.348c7.255,0,13.136,5.881,13.136,13.136v291.893
				C211.279,398.345,203.656,405.967,194.253,405.967z"/>
			<path style="fill:#FFFFFF;" d="M162.507,91.138l-2.666,5.269H94.642l-3.878-5.269H59.943c-4.932,0-8.929,3.951-8.929,8.824
				V384.06c0,7.363,6.041,13.332,13.492,13.332h126.925c7.451,0,13.492-5.969,13.492-13.332V99.962c0-4.873-3.998-8.824-8.929-8.824
				H162.507z"/>
			<path style="fill:#FFFFFF;" d="M127.892,90.636c0,1.481-1.2,2.681-2.681,2.681s-2.681-1.2-2.681-2.681
				c0-1.481,1.2-2.681,2.681-2.681S127.892,89.155,127.892,90.636z"/>
			<path style="fill:#FFFFFF;" d="M131.851,90.636c0,0.74-0.6,1.34-1.341,1.34c-0.74,0-1.341-0.6-1.341-1.34
				c0-0.74,0.6-1.341,1.341-1.341C131.251,89.295,131.851,89.895,131.851,90.636z"/>
		</g>
		<path style="fill:#89D32A;" d="M195.993,91.138h-33.487l-2.666,5.269H94.642l-3.878-5.269H59.943c-4.932,0-8.929,3.95-8.929,8.824
			v72.687h153.909V99.962C204.923,95.088,200.925,91.138,195.993,91.138z"/>
		
			<text transform="matrix(1 0 0 1 89.6822 151.7542)" style="fill:#FFFFFF; font-family:'Montserrat-SemiBold'; font-size:17.0655px;">Car Insurance</text>
		<path style="fill:#FFFFFF;" d="M144.566,128.378v-5.287c0-0.462-0.232-0.888-0.611-1.142h0.001
			c-0.002-0.001-0.004-0.002-0.005-0.003c-0.038-0.025-0.078-0.05-0.119-0.071l-3.751-1.974c0,0,0,0,0,0
			c-0.013-0.006-0.024-0.014-0.035-0.023c-0.026-0.022-0.046-0.05-0.058-0.082c-0.038-0.103,0.015-0.216,0.118-0.254l0.459-0.164
			c0.038-0.013,0.066-0.047,0.071-0.088c0.008-0.059-0.034-0.112-0.092-0.12c-1.782-0.249-8.714-1.155-12.358-0.709
			c-0.728,0.089-1.451,0.272-2.149,0.514l-0.002-0.001c-2.446,0.848-4.579,2.419-5.538,3.192c-0.348,0.28-0.543,0.456-0.543,0.456
			c-3.093-0.116-5.981,0.961-7.223,1.501c-0.401,0.175-0.71,0.512-0.85,0.926l-0.425,1.26c-0.056,0.16-0.085,0.327-0.087,0.496
			v2.664c0,0.571,0.372,1.075,0.917,1.243l0.217,0.066c0.134,0.041,0.273,0.061,0.413,0.057l0.002,0c0.001,0,0.002,0,0.003,0
			l1.434-0.033c-0.012-0.042-0.023-0.083-0.033-0.125c-0.001-0.003-0.001-0.005-0.002-0.008l0.623-0.015
			c0.138,0.473,0.393,0.919,0.765,1.291c1.182,1.182,3.099,1.182,4.281,0c0.409-0.409,0.676-0.905,0.802-1.429l0.617-0.014
			c-0.009,0.044-0.017,0.088-0.028,0.132l0.005,0c0,0,0,0,0,0l0,0l0,0l14.253-0.339c0,0,0,0,0,0.001l0.344-0.009
			c-0.006-0.042-0.011-0.084-0.015-0.126l0.605-0.014c0.074,0.657,0.363,1.294,0.867,1.798c1.182,1.182,3.099,1.182,4.281,0
			c0.54-0.54,0.832-1.233,0.879-1.939l0.602-0.014c0,0.008-0.001,0.016-0.001,0.023c0.003-0.001,0.006-0.002,0.009-0.004
			c0,0.001,0,0.003,0,0.004c0.019-0.008,0.039-0.015,0.058-0.025l0.287-0.13c0-0.001,0-0.001,0-0.002l0.205-0.091
			c0.492-0.222,0.809-0.712,0.809-1.253L144.566,128.378L144.566,128.378z"/>
		<g>
			<polygon style="fill:#263238;" points="182.889,273.798 67.048,276.513 67.048,256.701 184.004,256.701 			"/>
			<polygon style="opacity:0.5;enable-background:new    ;" points="182.889,273.798 67.048,276.513 67.048,256.701 
				184.004,256.701 			"/>
			<g id="freepik--Car--inject-7_00000011723343520719529370000006702025416100171674_">
				<path style="fill:#89D32A;" d="M62.592,261.784v10.048c-0.001,2.153,1.402,4.054,3.459,4.689l0.819,0.249
					c0.504,0.156,1.031,0.229,1.558,0.216l5.41-0.126c-0.643-2.249-0.699-4.624-0.164-6.901c1.731-7.369,9.109-11.939,16.477-10.208
					c7.369,1.731,11.939,9.108,10.208,16.477l55.051-1.309c-0.089-0.643-0.132-1.292-0.13-1.941
					c0.033-7.569,6.196-13.679,13.765-13.646c7.569,0.033,13.679,6.196,13.646,13.766c0,0.267-0.022,0.53-0.022,0.793
					c0.072-0.029,0.148-0.058,0.22-0.094l1.883-0.84c1.857-0.839,3.051-2.687,3.051-4.725v-20.465c0-1.925-1.066-3.692-2.77-4.588
					l-14.15-7.441c-0.162-0.086-0.286-0.229-0.35-0.402c-0.142-0.387,0.056-0.816,0.444-0.958l1.731-0.62
					c0.145-0.05,0.25-0.178,0.269-0.33c0.029-0.221-0.128-0.424-0.349-0.452c-6.723-0.938-32.872-4.357-46.618-2.676
					c-15.855,1.94-31.051,15.7-31.051,15.7c-11.668-0.436-22.56,3.625-27.249,5.663c-1.514,0.661-2.678,1.93-3.206,3.495
					l-1.605,4.754C62.71,260.514,62.599,261.146,62.592,261.784z"/>
				<path style="fill:#263238;" d="M155.423,274.92c-0.08-0.604-0.12-1.212-0.119-1.821c0-0.31,0.011-0.617,0.029-0.923
					l-9.955-4.072c-0.583-0.237-1.212-0.34-1.84-0.299l-34.625,2.272c-0.566,0.036-1.119,0.188-1.623,0.447l-6.579,3.383
					c-0.047,0.782-0.159,1.559-0.335,2.323L155.423,274.92z"/>
				<path style="fill:#263238;" d="M187.827,268.233v-0.523l-5.63,1.724c0.328,1.194,0.494,2.426,0.494,3.665
					c0,0.267-0.022,0.53-0.022,0.793c0.072-0.029,0.148-0.058,0.22-0.094l1.886-0.84
					C186.633,272.119,187.826,270.271,187.827,268.233z"/>
				<path style="fill:#263238;" d="M64.19,275.439c0.537,0.497,1.18,0.867,1.879,1.082l0.819,0.249
					c0.504,0.156,1.03,0.229,1.558,0.216l5.41-0.126c-0.196-0.684-0.337-1.382-0.422-2.088L64.19,275.439z"/>
				<path style="fill:#263238;" d="M169.021,258.105c-0.622,0-1.244,0.038-1.861,0.116c-8.215,1.026-14.043,8.517-13.017,16.732
					l1.298-0.032c-0.089-0.643-0.132-1.292-0.13-1.941c0.033-7.569,6.196-13.679,13.765-13.646
					c7.569,0.033,13.679,6.196,13.646,13.766c0,0.267-0.022,0.53-0.022,0.793c0.072-0.029,0.148-0.058,0.22-0.094l1.082-0.49
					c0-0.072,0-0.141,0-0.209c-0.01-8.278-6.719-14.986-14.997-14.993H169.021z"/>
				<path style="fill:#263238;" d="M87.035,258.105c-1.281,0-2.556,0.163-3.795,0.487c-8.012,2.094-12.809,10.285-10.716,18.297
					l1.331-0.029c-0.643-2.249-0.699-4.624-0.164-6.901c1.731-7.369,9.108-11.939,16.477-10.208
					c7.369,1.731,11.939,9.108,10.208,16.477l1.327-0.033c0.216-1.021,0.325-2.062,0.324-3.105
					C102.026,264.813,95.314,258.103,87.035,258.105L87.035,258.105z"/>
				<path style="fill:#263238;" d="M100.171,245.755c-0.158,0.121-0.268,0.294-0.313,0.488c-0.104,0.46,0.184,0.918,0.644,1.023
					l5.749,1.32c0.509,0.118,1.036,0.145,1.555,0.079l42.333-5.252c1.03-0.131,1.983-0.614,2.698-1.367l5.453-5.771
					c0.182-0.191,0.294-0.437,0.32-0.699c0.063-0.648-0.411-1.225-1.059-1.288c-10.182-1.028-23.047-1.908-31.141-0.916
					C115.803,234.672,105.239,241.842,100.171,245.755z"/>
				<g style="opacity:0.3;">
					<path d="M127.991,250.619c-0.272-0.098-0.413-0.398-0.315-0.669l0,0c0.12-0.337,0.433-0.566,0.79-0.581l5.049-0.213
						c0.068-0.003,0.136,0.007,0.201,0.03c0.274,0.098,0.416,0.399,0.319,0.673l0,0c-0.122,0.337-0.436,0.566-0.793,0.581
						l-5.049,0.209C128.124,250.653,128.056,250.643,127.991,250.619z"/>
				</g>
				<path style="fill:#263238;" d="M165.544,236.152c-0.447,0.397-0.487,1.081-0.09,1.528l1.197,1.302
					c0.137,0.146,0.312,0.252,0.505,0.307l14.669,4.068c0.255,0.069,0.518,0.104,0.783,0.105h2.914
					c-0.152-0.101-0.307-0.195-0.469-0.281l-14.15-7.448c0,0,0,0-0.001,0c-0.357-0.176-0.504-0.609-0.327-0.966l-4.595,1.151
					C165.818,235.96,165.669,236.041,165.544,236.152z"/>
				<path style="fill:#263238;" d="M94.992,245.993l0.797,0.227c0.619,0.177,1.286,0.033,1.778-0.382
					c4.638-3.924,12.703-9.944,21.406-12.75c0.039-0.013,0.071-0.039,0.091-0.075c0.044-0.078,0.016-0.177-0.062-0.221l-1.082-0.555
					C105.365,236.59,94.992,245.993,94.992,245.993z"/>
				<path style="opacity:0.2;fill:#FFFFFF;enable-background:new    ;" d="M142.558,251.292l-42.181,3.016l0.794,5.202
					c0.243,1.594,0.834,3.114,1.731,4.454l3.525,5.269l36.002-4.867l17.02-13.075H142.558z"/>
				<circle style="fill:#263238;" cx="169.008" cy="273.097" r="11.419"/>
				<path style="opacity:0.4;fill:#FFFFFF;enable-background:new    ;" d="M173.958,278.047c-2.734,2.734-7.167,2.734-9.901,0
					c-2.734-2.734-2.734-7.167,0-9.901c2.734-2.734,7.167-2.734,9.901,0C176.692,270.881,176.692,275.313,173.958,278.047z"/>
				<g style="opacity:0.3;">
					<path style="fill:#FFFFFF;" d="M169.569,267.36v3.589c0,0.309-0.25,0.559-0.559,0.559h-0.004c-0.309,0-0.559-0.25-0.559-0.559
						v-3.589c0-0.309,0.25-0.559,0.559-0.559h0.004C169.319,266.801,169.569,267.051,169.569,267.36z"/>
				</g>
				<g style="opacity:0.3;">
					<path style="fill:#FFFFFF;" d="M169.569,275.248v3.589c0,0.309-0.25,0.559-0.559,0.559h-0.004c-0.309,0-0.559-0.25-0.559-0.559
						v-3.589c0-0.309,0.25-0.559,0.559-0.559h0.004C169.319,274.689,169.569,274.939,169.569,275.248z"/>
				</g>
				<g style="opacity:0.3;">
					<path style="fill:#FFFFFF;" d="M171.147,272.51c-0.268,0.153-0.61,0.059-0.762-0.209l0,0c0,0-0.001-0.001-0.001-0.001
						c-0.154-0.268-0.061-0.609,0.206-0.763l3.105-1.803c0.269-0.155,0.613-0.063,0.768,0.206l0,0
						c0.153,0.268,0.061,0.609-0.206,0.765l-3.105,1.803C171.151,272.508,171.149,272.509,171.147,272.51z"/>
				</g>
				<g style="opacity:0.3;">
					<path style="fill:#FFFFFF;" d="M164.316,276.439c-0.268,0.154-0.61,0.061-0.763-0.206l0,0c0,0-0.001-0.001-0.001-0.001
						c-0.154-0.268-0.061-0.609,0.206-0.763l3.105-1.803c0,0,0,0,0,0c0.267-0.155,0.609-0.065,0.764,0.202l0,0
						c0.156,0.268,0.065,0.612-0.202,0.768l-3.109,1.803C164.317,276.439,164.317,276.439,164.316,276.439z"/>
				</g>
				<g style="opacity:0.3;">
					<path style="fill:#FFFFFF;" d="M173.695,276.453l-3.105-1.803c-0.269-0.156-0.361-0.499-0.206-0.768l0,0
						c0.157-0.267,0.5-0.358,0.768-0.202l3.105,1.803c0.267,0.155,0.358,0.497,0.206,0.765l0,0
						C174.308,276.516,173.964,276.608,173.695,276.453z"/>
				</g>
				<g style="opacity:0.3;">
					<path style="fill:#FFFFFF;" d="M167.628,272.303c-0.155,0.267-0.497,0.359-0.764,0.204l-3.105-1.803
						c-0.001,0-0.001-0.001-0.001-0.001c-0.267-0.155-0.359-0.496-0.204-0.764l0,0c0-0.001,0.001-0.001,0.001-0.001
						c0.155-0.267,0.497-0.359,0.764-0.204l3.109,1.803c0,0,0,0,0,0c0.267,0.155,0.357,0.498,0.202,0.764l0,0
						C167.629,272.302,167.628,272.302,167.628,272.303z"/>
				</g>
				<path style="fill:#263238;" d="M168.069,273.095c0-0.518,0.42-0.938,0.938-0.938c0.001,0,0.002,0,0.004,0
					c0.52,0,0.941,0.421,0.941,0.941c0,0.52-0.422,0.941-0.941,0.941s-0.941-0.421-0.941-0.941
					C168.069,273.097,168.069,273.096,168.069,273.095z"/>
				<circle style="fill:#263238;" cx="87.035" cy="273.099" r="11.419"/>
				<path style="opacity:0.4;fill:#FFFFFF;enable-background:new    ;" d="M91.985,278.049c-2.734,2.734-7.167,2.734-9.901,0
					c-2.734-2.734-2.734-7.167,0-9.901c2.734-2.734,7.167-2.734,9.901,0C94.719,270.883,94.719,275.315,91.985,278.049z"/>
				<g style="opacity:0.3;">
					<path style="fill:#FFFFFF;" d="M87.594,267.36v3.589c0,0.309-0.25,0.559-0.559,0.559h-0.004c-0.309,0-0.559-0.25-0.559-0.559
						v-3.589c0-0.309,0.25-0.559,0.559-0.559h0.004C87.344,266.801,87.594,267.051,87.594,267.36z"/>
				</g>
				<g style="opacity:0.3;">
					<path style="fill:#FFFFFF;" d="M87.594,275.248v3.589c0,0.309-0.25,0.559-0.559,0.559h-0.004c-0.309,0-0.559-0.25-0.559-0.559
						v-3.589c0-0.309,0.25-0.559,0.559-0.559h0.004C87.344,274.689,87.594,274.939,87.594,275.248z"/>
				</g>
				<g style="opacity:0.3;">
					<path style="fill:#FFFFFF;" d="M89.17,272.511c-0.267,0.151-0.606,0.057-0.757-0.21l0,0c0,0,0,0,0,0
						c-0.155-0.267-0.065-0.609,0.202-0.764l3.109-1.803c0.001,0,0.001-0.001,0.001-0.001c0.268-0.154,0.609-0.061,0.763,0.206l0,0
						c0,0,0.001,0.001,0.001,0.001c0.154,0.268,0.061,0.609-0.207,0.763l-3.105,1.803C89.175,272.509,89.173,272.51,89.17,272.511z"
						/>
				</g>
				<g style="opacity:0.3;">
					<path style="fill:#FFFFFF;" d="M81.578,276.233L81.578,276.233c0,0-0.001-0.001-0.001-0.001
						c-0.154-0.268-0.061-0.609,0.206-0.763l3.105-1.803c0.268-0.156,0.612-0.065,0.768,0.202l0,0
						c0.155,0.269,0.063,0.613-0.206,0.768l-3.105,1.803C82.077,276.594,81.734,276.501,81.578,276.233z"/>
				</g>
				<g style="opacity:0.3;">
					<path style="fill:#FFFFFF;" d="M92.488,276.249c-0.155,0.267-0.496,0.359-0.764,0.204l-3.109-1.803
						c-0.267-0.157-0.358-0.5-0.202-0.768l0,0c0,0,0,0,0,0c0.155-0.267,0.498-0.357,0.764-0.202l3.105,1.803
						c0.001,0,0.001,0.001,0.002,0.001c0.267,0.155,0.359,0.496,0.204,0.764l0,0C92.488,276.248,92.488,276.248,92.488,276.249z"/>
				</g>
				<g style="opacity:0.3;">
					<path style="fill:#FFFFFF;" d="M85.654,272.307c-0.156,0.266-0.498,0.356-0.765,0.2l-3.105-1.803c0,0-0.001-0.001-0.001-0.001
						c-0.267-0.155-0.359-0.496-0.204-0.764l0,0c0.155-0.269,0.499-0.361,0.768-0.206l3.105,1.803c0.001,0,0.001,0.001,0.001,0.001
						c0.267,0.155,0.359,0.497,0.204,0.764l0,0C85.656,272.303,85.655,272.305,85.654,272.307z"/>
				</g>
				<path style="fill:#263238;" d="M87.035,272.157L87.035,272.157c0.52,0,0.941,0.422,0.941,0.941s-0.421,0.941-0.941,0.941
					c-0.52,0-0.941-0.421-0.941-0.941S86.515,272.157,87.035,272.157z"/>
				<path style="opacity:0.3;enable-background:new    ;" d="M186.629,251.555c0.38-0.118,0.593-0.523,0.474-0.903
					c-0.133-2.404-0.644-4.544-2.117-6.016c-0.099-0.324-0.409-0.535-0.747-0.509l-8.703,0.822c-0.151,0.016-0.294,0.08-0.407,0.182
					c-0.296,0.267-0.318,0.723-0.051,1.019l2.492,2.687c0.087,0.093,0.196,0.161,0.317,0.198l8.332,2.525
					C186.354,251.599,186.496,251.597,186.629,251.555z"/>
				<path d="M99.859,246.24c-0.105,0.46,0.184,0.918,0.644,1.023l5.749,1.32c0.509,0.118,1.036,0.145,1.555,0.079l1.54-0.191
					l1.847-9.879c-3.864,2.081-7.55,4.475-11.022,7.16C100.013,245.873,99.903,246.046,99.859,246.24z"/>
				<path d="M136.881,232.955l-3.405,12.519l4.811-0.599l1.85-11.841C139.037,232.996,137.951,232.969,136.881,232.955z"/>
				<path d="M158.618,235.568c0.062-0.648-0.414-1.224-1.063-1.286c-1.356-0.141-2.799-0.274-4.242-0.404l-0.545,8.238l0.068-0.068
					l5.453-5.771C158.477,236.084,158.592,235.834,158.618,235.568z"/>
				<path style="fill:#89D32A;" d="M109.176,246.683c-1.143,0-2.07-0.928-2.07-2.071l0,0c0.001-0.972,0.677-1.814,1.627-2.023
					l2.766-0.613l0.646,4.631l-2.914,0.076C109.213,246.683,109.195,246.683,109.176,246.683z"/>
				<polygon style="opacity:0.3;enable-background:new    ;" points="111.338,246.628 112.146,246.607 111.5,241.975 
					110.71,242.152 				"/>
			</g>
			
				<path style="opacity:0.6;fill:none;stroke:#000000;stroke-width:0.25;stroke-linecap:round;stroke-linejoin:round;stroke-miterlimit:10;" d="
				M137.889,244.125c0,0,0.39,6.101,0,8.052s-3.432,16.222-3.432,16.222"/>
			
				<path style="opacity:0.6;fill:none;stroke:#000000;stroke-width:0.25;stroke-linecap:round;stroke-linejoin:round;stroke-miterlimit:10;" d="
				M99.862,246.628c0,0,0.783,13.18,2.167,15.676c1.35,2.435,5.263,8.219,5.263,8.219"/>
			
				<path style="opacity:0.6;fill:none;stroke:#000000;stroke-width:0.25;stroke-linecap:round;stroke-linejoin:round;stroke-miterlimit:10;" d="
				M96.561,246.295c0,0-9.725,2.403-12.587,2.861c-2.35,0.376-11.903,2.701-14.778,3.877"/>
		</g>
		<g>
			<rect x="97.037" y="198.325" style="fill:#263238;" width="67.641" height="6.714"/>
			<rect x="97.037" y="198.325" style="opacity:0.7;fill:#FFFFFF;" width="67.641" height="6.714"/>
		</g>
		<g>
			<rect x="103.36" y="302.534" style="fill:#263238;" width="60.232" height="6.714"/>
			<rect x="103.36" y="302.534" style="opacity:0.7;fill:#FFFFFF;" width="60.232" height="6.714"/>
		</g>
		<g>
			<rect x="103.36" y="316.432" style="fill:#263238;" width="18.116" height="6.714"/>
			<rect x="103.36" y="316.432" style="opacity:0.7;fill:#FFFFFF;" width="18.116" height="6.714"/>
		</g>
		<rect x="77.509" y="342.912" style="fill:#89D32A;" width="104.811" height="32.877"/>
		<rect x="172.425" y="342.912" style="opacity:0.3;enable-background:new    ;" width="9.895" height="32.877"/>
		
			<text transform="matrix(1 0 0 1 110.025 363.6253)" style="fill:#FFFFFF; font-family:'Montserrat-SemiBold'; font-size:14.0783px;">Quote</text>
		<g>
			<path style="fill:#263238;" d="M81.391,301.275c3.204-3.084,8.301-2.988,11.385,0.216c3.001,3.117,3.002,8.05,0.002,11.168
				l-4.549,4.549c-0.631,0.632-1.655,0.632-2.287,0l-4.552-4.552C78.25,309.513,78.25,304.419,81.391,301.275z M87.085,310.709
				c2.123,0,3.833-1.77,3.734-3.915c-0.088-1.904-1.654-3.47-3.558-3.558c-2.145-0.099-3.915,1.611-3.915,3.734c0,0,0,0.001,0,0.001
				c0.004,2.062,1.677,3.731,3.738,3.731V310.709z"/>
			<path style="opacity:0.7;fill:#FFFFFF;" d="M81.391,301.275c3.204-3.084,8.301-2.988,11.385,0.216
				c3.001,3.117,3.002,8.05,0.002,11.168l-4.549,4.549c-0.631,0.632-1.655,0.632-2.287,0l-4.552-4.552
				C78.25,309.513,78.25,304.419,81.391,301.275z M87.085,310.709c2.123,0,3.833-1.77,3.734-3.915
				c-0.088-1.904-1.654-3.47-3.558-3.558c-2.145-0.099-3.915,1.611-3.915,3.734c0,0,0,0.001,0,0.001
				c0.004,2.062,1.677,3.731,3.738,3.731V310.709z"/>
		</g>
	</g>
	<path style="fill:#FFFFFF;enable-background:new    ;" d="M74.201,253.578l-5.005-0.545l-2.876,1.176
		c-0.604,0.247-1.056,0.766-1.217,1.399l0,0c-0.094,0.366-0.041,0.755,0.148,1.082l0.05,0.087c0.322,0.554,0.945,0.858,1.58,0.772
		l2.886-0.397c0.281-0.04,0.548-0.151,0.775-0.321l3.329-2.525L74.201,253.578z"/>
</g>
<g id="Speech_Bubble">
	<g>
		<g>
			<g>
				<g>
					<g>
						<g>
							
								<ellipse transform="matrix(0.0879 -0.9961 0.9961 0.0879 145.0453 546.8617)" style="fill:#89D32A;" cx="371.151" cy="194.225" rx="21.207" ry="21.207"/>
						</g>
						<g>
							<polygon style="fill:#89D32A;" points="379.477,208.608 378.012,213.867 384.09,217.106 384.829,210.371 							"/>
						</g>
					</g>
				</g>
				<path style="fill:none;stroke:#89D32A;stroke-width:0.5;stroke-linecap:round;stroke-linejoin:round;stroke-miterlimit:10;" d="
					M388.384,175.323c5.6,4.023,8.941,11.001,8.564,17.885"/>
				<path style="fill:none;stroke:#89D32A;stroke-width:0.5;stroke-linecap:round;stroke-linejoin:round;stroke-miterlimit:10;" d="
					M396.663,196.36c0.02,1.051-0.179,2.107-0.582,3.078"/>
			</g>
		</g>
		<g style="enable-background:new    ;">
			<polygon style="fill:#FFFFFF;" points="370.76,203.16 360.081,196.018 362.574,192.291 369.734,197.081 378.644,185.29 
				382.221,187.992 			"/>
		</g>
	</g>
</g>
<g id="Character">
	<g>
		<g>
			<polygon style="fill:#263238;" points="695.142,402.195 200.533,413.789 200.533,329.194 699.901,329.194 			"/>
			<polygon style="opacity:0.5;enable-background:new    ;" points="695.142,402.195 200.533,413.789 200.533,329.194 
				699.901,329.194 			"/>
			<g id="freepik--Car--inject-7">
				<path style="fill:#89D32A;" d="M181.508,350.898v42.904c-0.003,9.191,5.986,17.31,14.768,20.02l3.496,1.063
					c2.153,0.667,4.4,0.979,6.653,0.924l23.1-0.539c-2.744-9.601-2.985-19.744-0.701-29.465
					c7.392-31.463,38.89-50.976,70.353-43.584c31.463,7.392,50.976,38.89,43.584,70.353l235.049-5.59
					c-0.38-2.746-0.565-5.515-0.553-8.287c0.141-32.319,26.455-58.405,58.774-58.264c32.319,0.141,58.405,26.455,58.264,58.774
					c0,1.14-0.092,2.264-0.092,3.388c0.308-0.123,0.631-0.246,0.939-0.4l8.039-3.588c7.928-3.582,13.025-11.474,13.028-20.174
					v-87.379c0.001-8.219-4.553-15.762-11.827-19.589l-60.414-31.77c-0.692-0.368-1.223-0.979-1.493-1.714
					c-0.607-1.653,0.241-3.484,1.894-4.091l7.392-2.649c0.62-0.213,1.066-0.759,1.15-1.41c0.122-0.945-0.544-1.81-1.489-1.932
					c-28.705-4.004-140.355-18.603-199.044-11.427C384.68,224.757,319.8,283.508,319.8,283.508
					c-49.819-1.863-96.327,15.477-116.346,24.178c-6.463,2.821-11.435,8.241-13.691,14.923l-6.853,20.297
					C182.013,345.476,181.54,348.175,181.508,350.898z"/>
				<path style="fill:#263238;" d="M577.872,406.984c-0.341-2.578-0.511-5.176-0.508-7.777c0-1.324,0.046-2.633,0.123-3.942
					l-42.504-17.387c-2.488-1.013-5.173-1.45-7.854-1.278l-147.839,9.702c-2.417,0.153-4.776,0.803-6.93,1.91l-28.089,14.445
					c-0.2,3.34-0.679,6.657-1.432,9.918L577.872,406.984z"/>
				<path style="fill:#263238;" d="M716.225,378.433V376.2l-24.039,7.361c1.402,5.097,2.111,10.36,2.11,15.646
					c0,1.14-0.092,2.264-0.092,3.388c0.308-0.123,0.631-0.246,0.939-0.4l8.054-3.588
					C711.125,395.025,716.222,387.133,716.225,378.433z"/>
				<path style="fill:#263238;" d="M188.331,409.202c2.294,2.122,5.036,3.701,8.023,4.62l3.496,1.063
					c2.153,0.667,4.4,0.979,6.653,0.924l23.1-0.539c-0.836-2.92-1.439-5.901-1.802-8.917L188.331,409.202z"/>
				<path style="fill:#263238;" d="M635.929,335.19c-2.657-0.001-5.311,0.164-7.947,0.493c-35.075,4.38-59.958,36.365-55.578,71.44
					l5.544-0.139c-0.38-2.746-0.565-5.515-0.553-8.287c0.141-32.319,26.455-58.405,58.774-58.264s58.405,26.455,58.264,58.774
					c0,1.14-0.092,2.264-0.092,3.388c0.308-0.123,0.631-0.246,0.939-0.4l4.62-2.094c0-0.308,0-0.6,0-0.893
					c-0.042-35.344-28.689-63.984-64.033-64.018L635.929,335.19z"/>
				<path style="fill:#263238;" d="M285.874,335.19c-5.467-0.001-10.912,0.698-16.202,2.08
					c-34.207,8.939-54.691,43.916-45.752,78.123l5.683-0.123c-2.744-9.601-2.985-19.744-0.701-29.465
					c7.392-31.463,38.89-50.976,70.353-43.584c31.463,7.392,50.976,38.89,43.584,70.353l5.667-0.139
					c0.922-4.359,1.386-8.803,1.385-13.259C349.882,363.83,321.221,335.182,285.874,335.19L285.874,335.19z"/>
				<path style="fill:#89D32A;" d="M341.582,285.968c-0.684,0.579-1.171,1.412-1.375,2.354c-0.485,2.233,0.708,4.483,2.665,5.026
					l24.433,6.848c2.165,0.613,4.409,0.783,6.63,0.501l181.163-22.445c4.409-0.56,8.518-2.84,11.632-6.455l23.765-27.687
					c0.792-0.915,1.293-2.104,1.424-3.378c0.324-3.151-1.652-5.993-4.414-6.349c-43.381-5.752-98.231-10.982-132.866-6.75
					C409.245,233.172,363.544,267.293,341.582,285.968z"/>
				<path style="opacity:0.8;fill:#FFFFFF;enable-background:new    ;" d="M342.398,285.968c-0.684,0.579-1.171,1.412-1.375,2.354
					c-0.485,2.233,0.708,4.483,2.665,5.026l24.433,6.848c2.165,0.613,4.409,0.783,6.63,0.501l177.107-12.14
					c4.409-0.56,11.223-8.661,16.042-15.239l23.411-29.207c0.792-0.915,1.293-2.104,1.424-3.378
					c0.324-3.151-1.652-5.993-4.414-6.349c-43.381-5.752-98.231-10.982-132.866-6.75
					C410.062,233.172,364.36,267.293,342.398,285.968z"/>
				<g style="opacity:0.3;">
					<path d="M460.744,303.228c-1.16-0.418-1.762-1.697-1.344-2.858l0,0c0.514-1.437,1.848-2.418,3.373-2.479l21.56-0.909
						c0.291-0.013,0.583,0.031,0.857,0.129c1.169,0.418,1.778,1.705,1.36,2.874l0,0c-0.523,1.436-1.861,2.415-3.388,2.479
						l-21.56,0.893C461.31,303.372,461.019,303.328,460.744,303.228z"/>
				</g>
				<path style="fill:#89D32A;" d="M621.081,241.458c-1.907,1.696-2.078,4.616-0.382,6.522l5.113,5.559
					c0.587,0.623,1.332,1.076,2.156,1.309l62.631,17.371c1.09,0.294,2.213,0.444,3.342,0.447h12.443
					c-0.647-0.431-1.309-0.832-2.002-1.201l-60.414-31.801c-0.001-0.001-0.003-0.001-0.004-0.002
					c-1.525-0.753-2.151-2.6-1.398-4.125l-19.62,4.913C622.255,240.636,621.616,240.982,621.081,241.458z"/>
				<path style="fill:#FFFFFF;enable-background:new    ;" d="M231.074,315.862l-21.37-2.327l-12.278,5.022
					c-2.581,1.056-4.509,3.272-5.197,5.975l0,0c-0.403,1.563-0.176,3.222,0.631,4.62l0.216,0.37
					c1.373,2.364,4.037,3.665,6.745,3.296l12.32-1.694c1.201-0.172,2.34-0.643,3.311-1.371l14.214-10.78L231.074,315.862z"/>
				<path style="fill:#89D32A;" d="M319.846,283.477l3.403,0.97c2.645,0.755,5.491,0.143,7.592-1.632
					c19.804-16.755,54.239-42.458,91.398-54.439c0.165-0.054,0.303-0.168,0.388-0.319c0.187-0.334,0.069-0.756-0.265-0.943
					l-4.62-2.372C364.136,243.329,319.846,283.477,319.846,283.477z"/>
				<path style="opacity:0.8;fill:#FFFFFF;enable-background:new    ;" d="M319.846,283.477l3.403,0.97
					c2.645,0.755,5.491,0.143,7.592-1.632c19.804-16.755,54.239-42.458,91.398-54.439c0.165-0.054,0.303-0.168,0.388-0.319
					c0.187-0.334,0.069-0.756-0.265-0.943l-4.62-2.372C364.136,243.329,319.846,283.477,319.846,283.477z"/>
				<path style="opacity:0.2;fill:#FFFFFF;enable-background:new    ;" d="M522.94,306.1l-180.102,12.879l3.389,22.212
					c1.038,6.805,3.561,13.298,7.389,19.019l15.053,22.497l153.716-20.783l72.672-55.825H522.94z"/>
				<circle style="fill:#263238;" cx="635.873" cy="399.202" r="48.756"/>
				<circle style="opacity:0.4;fill:#FFFFFF;enable-background:new    ;" cx="635.873" cy="399.202" r="29.891"/>
				<g style="opacity:0.3;">
					<path style="fill:#FFFFFF;" d="M638.27,374.706v15.323c0,1.318-1.069,2.387-2.387,2.387h-0.015
						c-1.318,0-2.387-1.069-2.387-2.387v-15.323c0-1.318,1.069-2.387,2.387-2.387h0.015
						C637.201,372.319,638.27,373.388,638.27,374.706z"/>
				</g>
				<g style="opacity:0.3;">
					<path style="fill:#FFFFFF;" d="M638.27,408.386v15.323c0,1.318-1.069,2.387-2.387,2.387h-0.015
						c-1.318,0-2.387-1.069-2.387-2.387v-15.323c0-1.318,1.069-2.387,2.387-2.387h0.015
						C637.201,405.999,638.27,407.068,638.27,408.386z"/>
				</g>
				<g style="opacity:0.3;">
					<path style="fill:#FFFFFF;" d="M645.006,396.696c-1.145,0.653-2.603,0.253-3.256-0.892l0,0
						c-0.001-0.002-0.002-0.004-0.004-0.006c-0.656-1.143-0.262-2.602,0.881-3.259l13.259-7.7c1.148-0.663,2.616-0.27,3.28,0.878
						l0,0c0.652,1.145,0.261,2.601-0.878,3.265l-13.259,7.7C645.023,396.687,645.014,396.691,645.006,396.696z"/>
				</g>
				<g style="opacity:0.3;">
					<path style="fill:#FFFFFF;" d="M615.842,413.471c-1.143,0.656-2.602,0.262-3.259-0.881l0,0
						c-0.001-0.002-0.002-0.004-0.003-0.006c-0.656-1.143-0.262-2.602,0.881-3.259l13.259-7.7c0,0,0.001-0.001,0.001-0.001
						c1.14-0.663,2.601-0.276,3.263,0.863l0,0c0.665,1.144,0.28,2.611-0.862,3.28l-13.275,7.7
						C615.846,413.469,615.844,413.47,615.842,413.471z"/>
				</g>
				<g style="opacity:0.3;">
					<path style="fill:#FFFFFF;" d="M655.888,413.53l-13.259-7.7c-1.148-0.664-1.54-2.132-0.878-3.28l0,0
						c0.669-1.142,2.136-1.528,3.28-0.862l13.259,7.7c1.138,0.663,1.53,2.12,0.878,3.265l0,0
						C658.504,413.799,657.036,414.192,655.888,413.53z"/>
				</g>
				<g style="opacity:0.3;">
					<path style="fill:#FFFFFF;" d="M629.982,395.81c-0.66,1.141-2.12,1.532-3.261,0.872l-13.259-7.7
						c-0.002-0.001-0.004-0.002-0.006-0.004c-1.141-0.66-1.531-2.12-0.872-3.261l0,0c0.001-0.002,0.002-0.004,0.004-0.006
						c0.66-1.141,2.12-1.532,3.261-0.872l13.275,7.7c0.001,0,0.001,0,0.001,0.001c1.139,0.664,1.525,2.125,0.861,3.264l0,0
						C629.984,395.806,629.983,395.808,629.982,395.81z"/>
				</g>
				<path style="fill:#263238;" d="M631.864,399.192c0-2.211,1.793-4.004,4.004-4.004c0.005,0,0.01,0,0.015,0
					c2.22,0,4.019,1.8,4.019,4.019c0,2.22-1.799,4.019-4.019,4.019c-2.22,0-4.019-1.799-4.019-4.019
					C631.864,399.202,631.864,399.197,631.864,399.192z"/>
				<circle style="fill:#263238;" cx="285.872" cy="399.211" r="48.756"/>
				<circle style="opacity:0.4;fill:#FFFFFF;enable-background:new    ;" cx="285.872" cy="399.211" r="29.891"/>
				<g style="opacity:0.3;">
					<path style="fill:#FFFFFF;" d="M288.261,374.706v15.323c0,1.318-1.069,2.387-2.387,2.387h-0.015
						c-1.318,0-2.387-1.069-2.387-2.387v-15.323c0-1.318,1.069-2.387,2.387-2.387h0.015
						C287.192,372.319,288.261,373.388,288.261,374.706z"/>
				</g>
				<g style="opacity:0.3;">
					<path style="fill:#FFFFFF;" d="M288.261,408.386v15.323c0,1.318-1.069,2.387-2.387,2.387h-0.015
						c-1.318,0-2.387-1.069-2.387-2.387v-15.323c0-1.318,1.069-2.387,2.387-2.387h0.015
						C287.192,405.999,288.261,407.068,288.261,408.386z"/>
				</g>
				<g style="opacity:0.3;">
					<path style="fill:#FFFFFF;" d="M294.988,396.701c-1.14,0.645-2.587,0.243-3.232-0.897l0,0c0,0-0.001-0.001-0.001-0.001
						c-0.663-1.14-0.276-2.601,0.863-3.263l13.275-7.7c0.002-0.001,0.004-0.002,0.006-0.003c1.143-0.656,2.602-0.262,3.259,0.881
						l0,0c0.001,0.002,0.002,0.004,0.003,0.006c0.656,1.143,0.262,2.602-0.881,3.259l-13.259,7.7
						C295.01,396.688,294.999,396.695,294.988,396.701z"/>
				</g>
				<g style="opacity:0.3;">
					<path style="fill:#FFFFFF;" d="M262.574,412.59L262.574,412.59c-0.001-0.002-0.002-0.004-0.004-0.006
						c-0.656-1.143-0.262-2.602,0.881-3.259l13.259-7.7c1.144-0.665,2.611-0.28,3.28,0.862l0,0c0.663,1.148,0.27,2.616-0.878,3.28
						l-13.259,7.7C264.706,414.13,263.238,413.738,262.574,412.59z"/>
				</g>
				<g style="opacity:0.3;">
					<path style="fill:#FFFFFF;" d="M309.155,412.658c-0.66,1.141-2.12,1.531-3.261,0.872l-13.275-7.7
						c-1.142-0.669-1.528-2.136-0.862-3.28l0,0c0,0,0.001-0.001,0.001-0.001c0.664-1.139,2.125-1.525,3.264-0.861l13.259,7.7
						c0.002,0.001,0.004,0.002,0.006,0.004c1.141,0.66,1.531,2.12,0.872,3.261l0,0C309.157,412.654,309.156,412.656,309.155,412.658
						z"/>
				</g>
				<g style="opacity:0.3;">
					<path style="fill:#FFFFFF;" d="M279.977,395.829c-0.666,1.137-2.129,1.52-3.266,0.853l-13.259-7.7
						c-0.002-0.001-0.004-0.002-0.006-0.004c-1.141-0.66-1.531-2.12-0.872-3.261l0,0c0.664-1.148,2.132-1.54,3.28-0.878l13.259,7.7
						c0.002,0.001,0.004,0.002,0.006,0.004c1.141,0.66,1.532,2.12,0.872,3.261l0,0C279.986,395.812,279.982,395.82,279.977,395.829z
						"/>
				</g>
				<path style="fill:#263238;" d="M285.874,395.188L285.874,395.188c2.22,0,4.019,1.8,4.019,4.02c0,2.22-1.8,4.019-4.019,4.019
					c-2.22,0-4.019-1.799-4.019-4.019C281.854,396.988,283.654,395.188,285.874,395.188z"/>
				<path style="opacity:0.3;enable-background:new    ;" d="M711.109,307.225c1.624-0.506,2.531-2.232,2.025-3.856
					c-0.566-10.264-2.748-19.404-9.04-25.687c-0.422-1.382-1.747-2.285-3.188-2.171l-37.16,3.511
					c-0.647,0.069-1.255,0.342-1.737,0.778c-1.262,1.141-1.36,3.089-0.219,4.35l10.641,11.473c0.369,0.397,0.837,0.689,1.355,0.847
					l35.574,10.78C709.934,307.411,710.541,307.402,711.109,307.225z"/>
				<path style="fill:#263238;" d="M340.207,288.304c-0.485,2.233,0.708,4.483,2.665,5.026l24.433,6.848
					c2.165,0.613,3.976,1.033,6.791,1.16l7.693-0.51l-7.255-39.195c-16.757,11.005-17.905,11.507-32.952,24.317
					C340.898,286.529,340.412,287.362,340.207,288.304z"/>
				<path style="fill:#263238;" d="M499.373,226.367l-15.349,66.931l20.078-1.443l9.169-64.861
					C508.572,226.724,503.94,226.516,499.373,226.367z"/>
				<path style="fill:#263238;" d="M563.081,279.336l28.201-35.226c0.811-0.923,1.324-2.131,1.455-3.426
					c0.317-3.152-1.665-5.988-4.428-6.336c-5.778-0.784-11.926-1.54-18.074-2.278"/>
				<g>
					<path style="fill:#89D32A;" d="M362.43,295.108c-4.882,0.058-8.886-3.853-8.943-8.734l0,0c-0.047-4.152,2.797-7.779,6.84-8.723
						l11.779-2.762l2.997,19.739l-12.438,0.475C362.586,295.106,362.508,295.108,362.43,295.108z"/>
					<polygon style="opacity:0.3;enable-background:new    ;" points="371.654,294.762 375.102,294.628 372.105,274.889 
						368.742,275.685 					"/>
				</g>
			</g>
			
				<path style="opacity:0.6;fill:none;stroke:#000000;stroke-width:0.5;stroke-linecap:round;stroke-linejoin:round;stroke-miterlimit:10;" d="
				M503.684,291.858c0.144,6.937,0.069,14.275-0.68,18.024c-1.666,8.33-14.652,69.263-14.652,69.263"/>
			
				<path style="opacity:0.6;fill:none;stroke:#000000;stroke-width:0.5;stroke-linecap:round;stroke-linejoin:round;stroke-miterlimit:10;" d="
				M340.099,289.775c0,0,3.882,52.686,9.792,63.343c5.764,10.395,22.469,35.094,22.469,35.094"/>
			
				<path style="opacity:0.6;fill:none;stroke:#000000;stroke-width:0.5;stroke-linecap:round;stroke-linejoin:round;stroke-miterlimit:10;" d="
				M326.545,284.764c0,0-41.523,10.258-53.742,12.216c-10.033,1.608-50.821,11.532-63.099,16.554"/>
			<path style="opacity:0.8;fill:#FFFFFF;enable-background:new    ;" d="M621.081,241.458c-1.907,1.696-2.078,4.616-0.382,6.522
				l5.113,5.559c0.587,0.623,1.332,1.076,2.156,1.309l62.631,17.371c1.09,0.294,2.213,0.444,3.342,0.447h12.443
				c-0.647-0.431-1.309-0.832-2.002-1.201l-60.414-31.801c-0.001-0.001-0.003-0.001-0.004-0.002c-1.525-0.753-2.151-2.6-1.398-4.125
				l-19.62,4.913C622.255,240.636,621.616,240.982,621.081,241.458z"/>
		</g>
		<g>
			<g>
				<path style="fill:#E1715B;" d="M413.648,267.974c0,0,7.484,26.317,11.118,27.251c6.584,1.691,28.842-2.129,28.4-2.86
					l-1.821-9.272c0,0-22.725-1.635-23.195-1.451l-7.211-16.503L413.648,267.974z"/>
				<g>
					<g>
						<g>
							<g>
								<g>
									<g>
										<g>
											<path style="fill:#E1715B;" d="M420.989,269.799c0,0,2.269-2.112,2.332-4.674c0.062-2.562,0.794-4.592,0.709-6.5
												c-0.085-1.908-1.682,0.116-2.313,1.365c-0.631,1.249-1.36,2.658-2.221,2.032c-0.861-0.626-4.609-8.98-5.902-9.712
												c-1.293-0.732-1.109,0.809-1.109,0.809s-0.965-2.005-1.863-1.839c-0.233,0.043-0.706,0.522-0.409,1.504
												c0.667,2.21,2.306,6.777,2.306,6.777c-0.089-0.264-2.514-5.756-2.985-6.531c-0.615-1.013-1.422-1.177-1.997-0.801
												c-0.819,0.535,1.956,7.447,1.869,7.82c0,0-1.465-4.033-2.713-4.224c-1.248-0.192-0.464,2.397,0.66,4.549
												c1.031,1.972,2.537,6.111,3.779,8.014c1.531,2.345,3.086,3.576,5.682,3.178
												C419.408,271.167,420.989,269.799,420.989,269.799z"/>
										</g>
									</g>
								</g>
							</g>
						</g>
					</g>
					
						<path style="opacity:0.3;fill:none;stroke:#000000;stroke-width:0.25;stroke-linecap:round;stroke-linejoin:round;stroke-miterlimit:10;" d="
						M412.661,253.356c0.733,1.626,1.392,3.285,1.974,4.971"/>
					
						<path style="opacity:0.3;fill:none;stroke:#000000;stroke-width:0.25;stroke-linecap:round;stroke-linejoin:round;stroke-miterlimit:10;" d="
						M409.919,261.634c1.778-1.465,3.994-2.391,6.286-2.626"/>
					
						<path style="opacity:0.3;fill:none;stroke:#000000;stroke-width:0.25;stroke-linecap:round;stroke-linejoin:round;stroke-miterlimit:10;" d="
						M418.928,263.021c-0.789,0.509-1.393,1.299-1.676,2.194c-0.283,0.895-0.243,1.889,0.11,2.758"/>
				</g>
			</g>
			<g>
				<g>
					<path style="fill:#263238;" d="M472.314,259.232c0,0,8.326-7.034,7.967-9.384c-0.359-2.35-1.696-1.625-1.696-1.625
						s2.881-5.676,0.043-6.65c-2.839-0.974-3.036-0.02-3.036-0.02s1.124-4.631-1.127-6.024c-1.713-1.073-2.44,1.059-2.44,1.059
						s-3.27-5.073-7.183-4.999c-1.935,0.148-2.887,1.395-2.613,2.885c0.012,0.065,0.026,0.129,0.042,0.192
						c0,0-7.899-3.441-11.568-1.281c-3.669,2.161,1.117,4.529,1.117,4.529s-7.696-0.803-9.203,2.293
						c-1.198,2.459,2.227,4.115,2.227,4.115s-1.215,0.413-2.253,1.351c-1.978,1.787-0.769,5.176,1.895,5.272
						c0.021,0.001,0.041,0.001,0.062,0.002c0.409,0.012,1.144,0.101,1.44-0.181c0,0-1.322,2.787,1.527,3.682
						c2.848,0.895,4.202-2.406,4.202-2.406L472.314,259.232z"/>
					<g>
						<g>
							<path style="fill:#E1715B;" d="M469.694,277.343c0,0-0.464-4.013,2.391-13.768c0-0.01-0.514-0.24-0.514-0.25
								c0.393-1.364,0.812-2.625,1.206-3.717c0.009-0.032,0.009-0.042,0.009-0.042l-13.374,8.219
								c0.306,3.123-0.83,9.152-1.505,11.698l3.465,5.865L469.694,277.343z"/>
							<path style="opacity:0.2;" d="M459.171,272.172l7.69-1.713c-0.703,2.388-2.826,5.216-8.174,5.433
								C458.686,275.892,459.226,273.219,459.171,272.172z"/>
						</g>
						<path style="fill:#263238;" d="M450.24,244.688c-1.579,3.085-2.154,9.878,2.77,8.474
							C457.933,251.759,452.955,239.385,450.24,244.688z"/>
						<path style="fill:#E1715B;" d="M472.905,253.078c-0.922,8.464-1.271,13.255-5.77,17.37c-6.767,6.189-16.838,1.914-18.467-6.68
							c-1.467-7.735,0.287-20.276,8.768-23.181C465.791,237.724,473.827,244.615,472.905,253.078z"/>
						<path style="fill:#263238;" d="M460.64,254.955c-0.041,0.869-0.535,1.546-1.103,1.514c-0.568-0.032-0.996-0.763-0.955-1.632
							c0.041-0.869,0.535-1.546,1.103-1.514C460.253,253.356,460.681,254.087,460.64,254.955z"/>
						<path style="fill:#263238;" d="M452.113,254.723c-0.041,0.869-0.535,1.546-1.103,1.514c-0.568-0.032-0.996-0.763-0.955-1.631
							c0.041-0.869,0.535-1.547,1.103-1.514C451.727,253.124,452.154,253.854,452.113,254.723z"/>
						<path style="fill:#FD504E;" d="M454.908,254.372c0,0-2.953,4.186-3.918,5.902c1.158,1.149,3.264,0.744,3.264,0.744
							L454.908,254.372z"/>
						<path style="fill:#263238;" d="M462.743,250.293c-0.137,0.036-0.29-0.001-0.397-0.111c-1.277-1.301-2.752-1.033-2.767-1.031
							c-0.221,0.043-0.436-0.101-0.481-0.321c-0.045-0.22,0.099-0.433,0.318-0.476c0.078-0.015,1.926-0.351,3.51,1.263
							c0.158,0.161,0.156,0.418-0.004,0.574C462.871,250.242,462.809,250.276,462.743,250.293z"/>
						<path style="fill:#263238;" d="M448.49,250.8c-0.074-0.023-0.142-0.068-0.194-0.133c-0.142-0.176-0.116-0.433,0.057-0.574
							c1.74-1.419,3.52-0.843,3.603-0.827c0.213,0.07,0.332,0.301,0.264,0.515c-0.068,0.214-0.294,0.33-0.506,0.263
							c-0.073-0.027-1.45-0.453-2.847,0.686C448.757,250.818,448.615,250.839,448.49,250.8z"/>
					</g>
					<g>
						<g>
							<path style="fill:#263238;" d="M456.723,266.692C456.802,266.673,456.696,266.703,456.723,266.692L456.723,266.692z"/>
							<path style="fill:#263238;" d="M455.401,263.407c1.365-0.431,3.882-1.343,5.102-2.624c0,0,0.219,0.374,0.346,0.939
								c0.115,0.487,0.177,1.106,0.015,1.748c-0.301,1.172-1.328,2.439-4.088,3.205c-0.038,0.012-0.045,0.015-0.052,0.017
								c-0.011,0.003-0.008,0.001-0.028,0.007c0,0-1.487,0.38-2.231-3.016C454.464,263.683,454.831,263.593,455.401,263.407z"/>
						</g>
						<path style="fill:#FFFFFF;" d="M455.401,263.407l0.526,0.918c2.597-0.728,4.327-1.589,4.922-2.603
							c-0.127-0.565-0.346-0.938-0.346-0.938C459.283,262.064,456.766,262.976,455.401,263.407z"/>
						<path style="fill:#FB504E;" d="M456.776,266.675c2.759-0.766,3.786-2.033,4.087-3.205c-0.93,0.297-2.018,0.759-2.895,1.458
							C457.296,265.459,456.955,266.086,456.776,266.675z"/>
					</g>
					<path style="fill:#263238;" d="M470.363,259.633c-0.733-0.399-1.505-0.836-1.903-1.57c-0.37-0.682-0.351-1.504-0.281-2.278
						c0.072-0.803,0.187-1.601,0.344-2.392c-0.755,0.379-1.667-0.225-2.08-0.961c-0.618-1.101-0.579-2.44-0.489-3.7
						c-0.962,0.205-2.051-0.081-2.684-0.835c-0.633-0.754-0.693-1.975-0.033-2.706c-3.124,0.42-6.33,0.22-9.378-0.585
						c0.21,0.389-0.034,0.864-0.304,1.214c-1.092,1.422-2.724,2.418-4.488,2.74c-0.259,0.047-0.58,0.055-0.724-0.165
						c-0.077-0.117-0.077-0.267-0.068-0.407c0.103-1.719,1.092-3.295,2.391-4.425c1.299-1.13,2.891-1.865,4.496-2.489
						c2.663-1.035,5.45-1.808,8.301-2.001c2.851-0.192,5.775,0.215,8.354,1.445c0.564,0.269,1.124,0.588,1.518,1.072
						c0.374,0.46,0.572,1.036,0.745,1.603c1.053,3.451,1.454,7.1,1.177,10.698"/>
					<g>
						<path style="fill:#E1715B;" d="M475.923,260.312c-0.782,2.153-2.489,3.735-4.212,4.492c-2.592,1.139-4.311-1.094-3.945-3.757
							c0.33-2.397,2.076-5.877,4.848-5.892C475.345,255.142,476.817,257.85,475.923,260.312z"/>
						
							<path style="opacity:0.2;fill:none;stroke:#000000;stroke-width:0.5;stroke-linecap:round;stroke-linejoin:round;stroke-miterlimit:10;" d="
							M474.095,257.874c-0.318-0.523-1.007-0.742-1.607-0.624c-0.601,0.118-1.114,0.519-1.499,0.995
							c-0.463,0.571-0.773,1.264-0.89,1.989"/>
					</g>
				</g>
				<g>
					<g>
						<path style="fill:#E1715B;" d="M457.268,291.154c0,0-24.865,7.267-33.897,7.582c-9.031,0.315-29.02-3.895-29.02-3.895
							l1.129-9.176l29.339,1.499l31.9-10.656L457.268,291.154z"/>
					</g>
					<g>
						<path style="fill:#263238;" d="M448.384,296.759l4.89-20.213l12.417-2.165c0.543-0.08,10.63-0.909,13.655,10.157l0.676,8.795
							L448.384,296.759z"/>
						<path style="fill:#263238;" d="M460.08,294.744c-0.688-0.01-20.044,3.529-20.044,3.529l-3.982-15.74
							c0,0,8.997-3.764,17.221-5.987c9.191-2.485,17.811-3.256,19.797,1.034C476.834,285.71,460.08,294.744,460.08,294.744z"/>
					</g>
				</g>
			</g>
			<path style="opacity:0.3;enable-background:new    ;" d="M419.995,287.063c0.47,0.024,4.824,0.246,4.824,0.246l12.55-4.3
				c0,0,2.599-1.119,1.937-0.893c-0.661,0.227-5.86-0.313-6.206-0.259C432.755,281.911,419.995,287.063,419.995,287.063z"/>
			<path style="fill:#263238;" d="M385.846,281.486c-0.563,0.34-7.213,7.213-7.213,7.213l1.297,8.519l8.361-8.631L385.846,281.486z"
				/>
			<path style="fill:#263238;" d="M395.862,299.255L395.862,299.255c-1.47,0.725-3.25,0.122-3.975-1.348l-13.266-26.879
				c-0.725-1.47-0.122-3.25,1.348-3.975l0,0c1.47-0.726,3.25-0.122,3.975,1.348l13.266,26.879
				C397.935,296.75,397.332,298.53,395.862,299.255z"/>
			<path style="fill:#E1715B;" d="M405.414,286.398l-10.919-1.466l-3.159-3.819c0,0-5.547-0.498-6.738,0.491
				c-1.191,0.989-2.39,4.14-2.39,4.14s-1.445,2.583,1.032,3.939c0,0-1.568,2.299,1.227,3.922c0,0-2.06,1.163,0.896,2.379
				c2.956,1.216,5.295,0.509,7.105-0.141c1.811-0.65,5.013-0.374,5.013-0.374l9.929,1.751L405.414,286.398z"/>
		</g>
	</g>
</g>
</svg>
