<?xml version="1.0" standalone="no"?>
<svg xmlns:xlink="http://www.w3.org/1999/xlink" id="wave" style="transform:rotate(180deg); transition: 0.3s" viewBox="0 0 1440 200" version="1.1" xmlns="http://www.w3.org/2000/svg"><defs><linearGradient id="sw-gradient-0" x1="0" x2="0" y1="1" y2="0"><stop stop-color="rgba(0, 96, 214, 1)" offset="0%"/><stop stop-color="rgba(0, 96, 214, 1)" offset="100%"/></linearGradient></defs><path style="transform:translate(0, 0px); opacity:1" fill="url(#sw-gradient-0)" d="M0,100L48,100C96,100,192,100,288,86.7C384,73,480,47,576,46.7C672,47,768,73,864,90C960,107,1056,113,1152,100C1248,87,1344,53,1440,63.3C1536,73,1632,127,1728,126.7C1824,127,1920,73,2016,60C2112,47,2208,73,2304,90C2400,107,2496,113,2592,103.3C2688,93,2784,67,2880,73.3C2976,80,3072,120,3168,113.3C3264,107,3360,53,3456,40C3552,27,3648,53,3744,73.3C3840,93,3936,107,4032,123.3C4128,140,4224,160,4320,170C4416,180,4512,180,4608,173.3C4704,167,4800,153,4896,143.3C4992,133,5088,127,5184,113.3C5280,100,5376,80,5472,66.7C5568,53,5664,47,5760,36.7C5856,27,5952,13,6048,16.7C6144,20,6240,40,6336,46.7C6432,53,6528,47,6624,56.7C6720,67,6816,93,6864,106.7L6912,120L6912,200L6864,200C6816,200,6720,200,6624,200C6528,200,6432,200,6336,200C6240,200,6144,200,6048,200C5952,200,5856,200,5760,200C5664,200,5568,200,5472,200C5376,200,5280,200,5184,200C5088,200,4992,200,4896,200C4800,200,4704,200,4608,200C4512,200,4416,200,4320,200C4224,200,4128,200,4032,200C3936,200,3840,200,3744,200C3648,200,3552,200,3456,200C3360,200,3264,200,3168,200C3072,200,2976,200,2880,200C2784,200,2688,200,2592,200C2496,200,2400,200,2304,200C2208,200,2112,200,2016,200C1920,200,1824,200,1728,200C1632,200,1536,200,1440,200C1344,200,1248,200,1152,200C1056,200,960,200,864,200C768,200,672,200,576,200C480,200,384,200,288,200C192,200,96,200,48,200L0,200Z"/></svg>